<svg width="454" height="301" viewBox="0 0 454 301" fill="none" xmlns="http://www.w3.org/2000/svg">
<path d="M21.209 193.189C49.574 110.861 121.942 50.2988 209.065 36.0627C293.65 22.2215 379.795 54.049 434.497 119.21C400.221 194.693 308.701 253.247 244.197 264.794C170.946 277.908 104.31 265.73 21.209 193.189Z" fill="white"/>
<g clip-path="url(#clip0_68_755)">
<path d="M244.004 119.867C244.004 116.67 245.147 113.928 247.435 111.64C249.721 109.353 252.477 108.209 255.7 108.209V152.461C255.7 155.659 254.556 158.401 252.269 160.688C249.982 162.976 247.226 164.119 244.004 164.119V141.076L221.858 141.038V152.461C221.858 155.659 220.72 158.401 218.447 160.688C216.171 162.976 213.423 164.119 210.2 164.119V119.867C210.2 116.67 211.337 113.928 213.612 111.64C215.886 109.353 218.635 108.209 221.858 108.209V131.29H244.004V119.867Z" fill="#0B5D78"/>
<path d="M303.408 128.678C303.408 131.719 303.408 134.76 303.408 137.802V139.673V140.57V141.739C303.356 143.299 303.16 144.858 302.823 146.418C302.095 149.563 300.782 152.475 298.885 155.151C296.961 157.829 294.519 159.999 291.555 161.662C288.513 163.248 285.278 164.067 281.847 164.119C278.389 164.067 275.141 163.248 272.1 161.662C269.136 159.999 266.693 157.829 264.77 155.151C262.872 152.475 261.573 149.563 260.871 146.418C260.506 144.858 260.312 143.299 260.286 141.739L260.247 140.57V139.673V137.802C260.247 134.709 260.26 131.602 260.286 128.483C260.286 125.208 260.286 121.933 260.286 118.658C260.286 115.773 261.306 113.31 263.347 111.269C265.387 109.229 267.85 108.209 270.735 108.209C270.683 114.968 270.683 121.725 270.735 128.483C270.735 131.577 270.735 134.67 270.735 137.763V139.634V140.531C270.735 140.765 270.748 140.947 270.774 141.076C270.774 141.129 270.774 141.194 270.774 141.272C270.826 142.156 270.969 143.027 271.203 143.884C271.697 145.574 272.49 147.082 273.581 148.407C275.895 151.058 278.65 152.384 281.847 152.384C285.018 152.384 287.76 151.058 290.073 148.407C291.165 147.082 291.958 145.574 292.452 143.884C292.686 143.027 292.829 142.156 292.881 141.272L292.92 140.57V139.634V137.763C292.92 134.748 292.933 131.72 292.96 128.678C292.96 125.352 292.96 122.025 292.96 118.697C293.037 115.734 294.077 113.245 296.079 111.231C298.08 109.216 300.523 108.209 303.409 108.209C303.356 115.045 303.356 121.869 303.408 128.678Z" fill="#0B5D78"/>
<path d="M350.662 143.416C351.052 145.391 351.104 147.367 350.818 149.342C350.142 153.397 348.31 156.764 345.321 159.44C343.891 160.74 342.292 161.766 340.525 162.521C338.809 163.301 337.016 163.782 335.144 163.963C334.728 164.015 334.3 164.041 333.857 164.041C333.832 164.041 333.793 164.054 333.741 164.08C333.611 164.08 333.494 164.08 333.39 164.08C333.026 164.08 332.727 164.08 332.493 164.08H330.505L326.567 164.041C324.019 164.041 321.485 164.054 318.965 164.08V164.119C315.741 164.119 312.992 162.976 310.718 160.688C308.443 158.401 307.307 155.659 307.307 152.461V119.867C307.307 116.67 308.443 113.928 310.718 111.64C312.992 109.353 315.741 108.209 318.965 108.209H319.041C321.301 108.235 323.525 108.209 325.761 108.209H329.521H331.467C332.376 108.209 333.22 108.313 334.131 108.443C337.926 109.015 341.188 110.718 343.918 113.551C346.594 116.514 347.985 120.049 348.089 124.156C348.037 127.769 346.92 130.979 344.736 133.786C346.192 134.956 347.426 136.346 348.441 137.958C349.506 139.647 350.246 141.467 350.662 143.416ZM325.709 118.658C323.448 118.658 321.2 118.671 318.965 118.697V129.614C319.666 129.64 320.354 129.652 321.031 129.652C321.343 129.652 321.641 129.652 321.928 129.652H322.152C323.815 129.679 325.267 129.652 326.957 129.652H329.491L331.324 129.614C331.661 129.588 331.999 129.536 332.338 129.458C333.663 129.094 334.69 128.392 335.417 127.352C336.094 126.338 336.432 125.273 336.432 124.155C336.432 123.038 336.093 121.972 335.417 120.958C334.664 119.919 333.625 119.23 332.298 118.891C331.986 118.813 331.661 118.762 331.324 118.735L329.452 118.697L325.709 118.658ZM339.316 147.666C339.472 146.34 339.239 145.067 338.615 143.845C337.991 142.571 336.977 141.558 335.573 140.804C334.897 140.492 334.17 140.284 333.39 140.18L332.805 140.102H331.83H331.674C331.649 140.102 331.609 140.102 331.558 140.102C331.531 140.102 331.493 140.102 331.441 140.102H329.53L327.035 140.063C325.345 140.063 323.643 140.076 321.928 140.102C321.641 140.102 321.343 140.102 321.031 140.102C320.354 140.102 319.666 140.102 318.965 140.102V153.592C321.485 153.644 324.007 153.67 326.528 153.67L330.466 153.631L332.454 153.592C332.61 153.592 332.733 153.592 332.824 153.592C332.915 153.592 333.001 153.579 333.078 153.552C333.104 153.552 333.142 153.552 333.195 153.552C333.22 153.552 333.26 153.552 333.313 153.552C333.469 153.552 333.625 153.527 333.78 153.475C335.34 153.163 336.626 152.449 337.64 151.331C338.601 150.214 339.16 148.991 339.316 147.666Z" fill="#0B5D78"/>
<path d="M163.496 193.133C165.062 194.678 167.222 195.32 169.147 194.811C171.13 194.287 172.564 192.619 172.873 190.484C170.608 188.806 168.992 188.623 167.33 189.093C165.866 189.507 163.973 191.159 163.496 193.133Z" fill="url(#paint0_linear_68_755)"/>
<path d="M222.505 171.986C221.986 171.692 221.417 171.545 220.801 171.545C219.763 171.545 218.81 171.734 217.941 172.112C217.071 172.491 216.3 173.011 215.627 173.669C214.954 174.328 214.4 175.072 213.965 175.899C213.814 176.187 213.685 176.478 213.566 176.771V173.817C213.566 173.312 213.411 172.898 213.103 172.575C212.794 172.253 212.388 172.092 211.883 172.092C211.406 172.092 211.006 172.254 210.684 172.575C210.361 172.898 210.2 173.312 210.2 173.817V192.115C210.2 192.592 210.361 192.999 210.684 193.335C211.006 193.671 211.406 193.84 211.883 193.84C212.36 193.84 212.759 193.672 213.082 193.335C213.404 192.999 213.566 192.592 213.566 192.115V181.893C213.566 180.884 213.741 179.937 214.091 179.054C214.442 178.171 214.905 177.386 215.48 176.698C216.054 176.011 216.685 175.472 217.373 175.079C218.06 174.686 218.754 174.49 219.455 174.49C219.96 174.49 220.38 174.574 220.717 174.742C221.053 174.91 221.404 174.994 221.768 174.994C222.161 174.994 222.511 174.847 222.82 174.552C223.128 174.258 223.283 173.817 223.283 173.228C223.283 172.695 223.024 172.281 222.505 171.986Z" fill="#659476"/>
<path d="M245.746 183.05C246.082 182.755 246.265 182.384 246.293 181.935C246.265 180.336 245.97 178.906 245.41 177.644C244.848 176.382 244.098 175.288 243.159 174.363C242.219 173.438 241.154 172.737 239.962 172.26C238.77 171.783 237.515 171.545 236.197 171.545C234.458 171.545 232.811 172.001 231.254 172.912C229.698 173.823 228.436 175.141 227.469 176.866C226.501 178.591 226.018 180.673 226.018 183.113C226.018 185.3 226.487 187.229 227.427 188.897C228.366 190.566 229.677 191.877 231.36 192.83C233.043 193.784 235.005 194.261 237.249 194.261C238.764 194.261 240.194 193.938 241.54 193.293C242.887 192.648 243.952 191.891 244.737 191.021C245.214 190.629 245.452 190.195 245.452 189.717C245.452 189.325 245.312 188.989 245.032 188.708C244.751 188.428 244.401 188.287 243.98 188.287C243.643 188.287 243.292 188.413 242.928 188.666C242.563 189.059 242.114 189.444 241.582 189.823C241.049 190.201 240.425 190.516 239.71 190.769C238.995 191.021 238.133 191.147 237.123 191.147C235.58 191.147 234.22 190.79 233.043 190.075C231.865 189.36 230.946 188.386 230.287 187.151C229.715 186.08 229.392 184.86 229.316 183.492H244.569C245.016 183.491 245.409 183.344 245.746 183.05ZM231.465 176.592C232.123 175.947 232.867 175.471 233.694 175.162C234.521 174.854 235.356 174.699 236.197 174.699C237.234 174.699 238.223 174.924 239.163 175.373C240.102 175.822 240.901 176.46 241.56 177.287C242.219 178.114 242.605 179.103 242.717 180.252V180.589H229.489C229.585 180.059 229.717 179.567 229.887 179.117C230.28 178.079 230.805 177.238 231.465 176.592Z" fill="#659476"/>
<path d="M251.13 190.39C250.906 190.026 250.8 189.64 250.815 189.234C250.829 188.827 251.06 188.47 251.509 188.161C251.817 187.965 252.161 187.881 252.539 187.909C252.918 187.937 253.261 188.119 253.57 188.455C254.355 189.381 255.253 190.117 256.263 190.664C257.272 191.211 258.506 191.484 259.964 191.484C260.609 191.457 261.275 191.344 261.963 191.148C262.649 190.952 263.224 190.608 263.687 190.117C264.15 189.627 264.381 188.975 264.381 188.161C264.381 187.376 264.143 186.751 263.666 186.289C263.189 185.826 262.565 185.448 261.794 185.153C261.023 184.859 260.202 184.6 259.333 184.375C258.408 184.122 257.496 183.842 256.599 183.533C255.701 183.225 254.895 182.826 254.18 182.335C253.465 181.844 252.89 181.227 252.455 180.484C252.02 179.741 251.803 178.822 251.803 177.728C251.803 176.466 252.146 175.372 252.834 174.447C253.521 173.521 254.439 172.806 255.589 172.301C256.739 171.797 258.015 171.544 259.417 171.544C260.202 171.544 261.023 171.636 261.878 171.818C262.733 172 263.567 172.309 264.381 172.743C265.194 173.178 265.909 173.774 266.527 174.531C266.779 174.812 266.919 175.162 266.947 175.583C266.975 176.003 266.793 176.382 266.4 176.719C266.092 176.944 265.748 177.049 265.37 177.035C264.991 177.021 264.676 176.887 264.423 176.635C263.806 175.906 263.056 175.352 262.173 174.973C261.289 174.595 260.314 174.405 259.249 174.405C258.604 174.405 257.959 174.51 257.314 174.721C256.669 174.931 256.129 175.261 255.694 175.709C255.259 176.158 255.043 176.789 255.043 177.602C255.07 178.36 255.322 178.977 255.8 179.453C256.276 179.93 256.921 180.315 257.735 180.61C258.548 180.904 259.445 181.192 260.427 181.472C261.324 181.697 262.187 181.956 263.014 182.251C263.841 182.545 264.592 182.931 265.265 183.407C265.938 183.884 266.47 184.495 266.863 185.237C267.256 185.981 267.452 186.913 267.452 188.035C267.452 189.325 267.088 190.44 266.359 191.379C265.629 192.319 264.669 193.034 263.477 193.524C262.285 194.015 261.002 194.26 259.628 194.26C258.086 194.26 256.557 193.973 255.043 193.398C253.528 192.824 252.224 191.82 251.13 190.39Z" fill="#659476"/>
<path d="M294.038 182.902C294.038 185.09 293.561 187.039 292.608 188.75C291.654 190.461 290.358 191.807 288.717 192.788C287.076 193.77 285.218 194.261 283.143 194.261C281.095 194.261 279.245 193.77 277.59 192.788C275.935 191.807 274.625 190.461 273.657 188.75C272.69 187.039 272.206 185.09 272.206 182.902C272.206 180.715 272.69 178.766 273.657 177.055C274.625 175.345 275.935 173.999 277.59 173.017C279.245 172.036 281.096 171.545 283.143 171.545C285.218 171.545 287.076 172.036 288.717 173.017C290.358 173.999 291.654 175.345 292.608 177.055C293.561 178.766 294.038 180.715 294.038 182.902ZM290.673 182.902C290.673 181.276 290.343 179.853 289.684 178.633C289.025 177.413 288.128 176.446 286.992 175.731C285.856 175.015 284.573 174.658 283.143 174.658C281.74 174.658 280.465 175.015 279.315 175.731C278.165 176.446 277.26 177.413 276.602 178.633C275.943 179.853 275.614 181.277 275.614 182.902C275.614 184.501 275.943 185.917 276.602 187.151C277.26 188.386 278.165 189.36 279.315 190.075C280.465 190.79 281.74 191.147 283.143 191.147C284.573 191.147 285.856 190.79 286.992 190.075C288.128 189.36 289.025 188.386 289.684 187.151C290.343 185.917 290.673 184.501 290.673 182.902Z" fill="#659476"/>
<path d="M312.484 171.986C311.964 171.692 311.396 171.545 310.78 171.545C309.742 171.545 308.788 171.734 307.919 172.112C307.05 172.491 306.279 173.011 305.606 173.669C304.932 174.328 304.378 175.072 303.944 175.899C303.792 176.187 303.663 176.478 303.544 176.771V173.817C303.544 173.312 303.39 172.898 303.081 172.575C302.773 172.253 302.366 172.092 301.861 172.092C301.384 172.092 300.984 172.254 300.662 172.575C300.34 172.898 300.179 173.312 300.179 173.817V192.115C300.179 192.592 300.34 192.999 300.662 193.335C300.984 193.671 301.384 193.84 301.861 193.84C302.338 193.84 302.737 193.672 303.06 193.335C303.382 192.999 303.544 192.592 303.544 192.115V181.893C303.544 180.884 303.719 179.937 304.07 179.054C304.42 178.171 304.883 177.386 305.458 176.698C306.033 176.011 306.663 175.472 307.351 175.079C308.038 174.686 308.732 174.49 309.433 174.49C309.938 174.49 310.359 174.574 310.695 174.742C311.032 174.91 311.382 174.994 311.747 174.994C312.139 174.994 312.489 174.847 312.798 174.552C313.106 174.258 313.261 173.817 313.261 173.228C313.262 172.695 313.002 172.281 312.484 171.986Z" fill="#659476"/>
<path d="M327.645 175.33C328.094 175.33 328.465 175.183 328.76 174.889C329.055 174.594 329.201 174.237 329.201 173.816C329.201 173.368 329.055 172.989 328.76 172.681C328.465 172.372 328.094 172.218 327.645 172.218H324.401V169.84C324.401 169.363 324.246 168.957 323.938 168.62C323.629 168.284 323.237 168.115 322.76 168.115C322.283 168.115 321.877 168.283 321.54 168.62C321.204 168.957 321.036 169.363 321.036 169.84V172.218H317.76C317.339 172.218 316.967 172.365 316.645 172.659C316.322 172.954 316.161 173.326 316.161 173.774C316.161 174.195 316.322 174.56 316.645 174.868C316.967 175.177 317.339 175.331 317.76 175.331H321.036V188.666C321.036 189.956 321.225 190.958 321.604 191.673C321.982 192.388 322.452 192.9 323.013 193.209C323.573 193.517 324.141 193.7 324.716 193.756C325.291 193.812 325.775 193.84 326.167 193.84C326.897 193.84 327.556 193.665 328.145 193.314C328.734 192.964 329.028 192.536 329.028 192.031C329.028 191.61 328.908 191.267 328.67 191C328.432 190.734 328.172 190.6 327.892 190.6C327.611 190.6 327.366 190.65 327.156 190.747C326.946 190.846 326.7 190.895 326.42 190.895C326.111 190.895 325.795 190.831 325.473 190.705C325.15 190.579 324.891 190.348 324.695 190.011C324.498 189.675 324.4 189.17 324.4 188.497V175.33H327.645Z" fill="#659476"/>
<path d="M349.715 185.237C349.322 184.495 348.79 183.884 348.116 183.407C347.443 182.931 346.693 182.545 345.866 182.251C345.038 181.956 344.176 181.697 343.279 181.472C342.297 181.192 341.4 180.904 340.587 180.61C339.773 180.315 339.128 179.93 338.652 179.453C338.174 178.977 337.922 178.36 337.895 177.602C337.895 176.789 338.112 176.158 338.547 175.709C338.981 175.261 339.521 174.931 340.166 174.721C340.811 174.51 341.456 174.405 342.101 174.405C343.167 174.405 344.142 174.595 345.025 174.973C345.908 175.352 346.658 175.906 347.275 176.635C347.527 176.887 347.843 177.021 348.222 177.034C348.6 177.049 348.943 176.943 349.252 176.719C349.645 176.382 349.827 176.003 349.799 175.583C349.771 175.162 349.631 174.812 349.379 174.531C348.761 173.774 348.046 173.178 347.233 172.743C346.419 172.309 345.586 172.001 344.73 171.818C343.874 171.636 343.054 171.545 342.269 171.545C340.867 171.545 339.591 171.797 338.441 172.302C337.291 172.807 336.373 173.522 335.686 174.447C334.998 175.373 334.655 176.466 334.655 177.728C334.655 178.822 334.872 179.741 335.307 180.484C335.742 181.227 336.317 181.844 337.032 182.335C337.747 182.826 338.553 183.225 339.451 183.533C340.348 183.842 341.259 184.122 342.185 184.375C343.054 184.6 343.874 184.859 344.646 185.153C345.417 185.448 346.04 185.826 346.518 186.289C346.994 186.752 347.233 187.376 347.233 188.161C347.233 188.975 347.001 189.626 346.538 190.117C346.076 190.608 345.501 190.952 344.814 191.147C344.126 191.344 343.46 191.456 342.816 191.484C341.357 191.484 340.124 191.211 339.114 190.664C338.104 190.117 337.207 189.381 336.422 188.455C336.113 188.119 335.77 187.936 335.391 187.908C335.012 187.881 334.669 187.965 334.36 188.161C333.912 188.47 333.68 188.827 333.666 189.233C333.652 189.64 333.757 190.026 333.982 190.39C335.076 191.821 336.38 192.823 337.894 193.398C339.408 193.972 340.937 194.26 342.479 194.26C343.853 194.26 345.136 194.014 346.328 193.524C347.52 193.034 348.48 192.319 349.21 191.379C349.939 190.44 350.304 189.325 350.304 188.034C350.304 186.913 350.107 185.981 349.715 185.237Z" fill="#659476"/>
<path d="M147.135 113.037C146.399 110.81 146.961 108.4 148.596 106.785C150.183 105.217 152.548 104.626 154.785 105.236C155.283 107.402 154.277 110.054 153.083 111.272C151.727 112.654 150.1 113.384 147.135 113.037Z" fill="url(#paint1_linear_68_755)"/>
<path d="M151.791 123.843C148.611 124.651 145.237 123.648 143.037 121.237C140.9 118.897 140.181 115.572 141.15 112.539C144.233 112.055 147.927 113.694 149.588 115.458C151.474 117.461 152.425 119.778 151.791 123.843Z" fill="url(#paint2_linear_68_755)"/>
<path d="M167.98 123.554C167.76 121.645 168.606 119.767 170.178 118.679C171.703 117.624 173.688 117.467 175.372 118.267C175.411 120.093 174.171 122.108 173.017 122.933C171.707 123.87 170.288 124.24 167.98 123.554Z" fill="url(#paint3_linear_68_755)"/>
<path d="M170.188 139.036C170.273 137.089 171.421 135.343 173.168 134.505C174.865 133.691 176.878 133.851 178.436 134.922C178.183 136.757 176.619 138.576 175.332 139.218C173.87 139.948 172.39 140.092 170.188 139.036Z" fill="url(#paint4_linear_68_755)"/>
<path d="M144.52 153.571C142.938 150.696 143.061 147.179 144.84 144.442C146.567 141.786 149.604 140.253 152.783 140.428C154.027 143.289 153.371 147.277 152.081 149.328C150.617 151.657 148.614 153.161 144.52 153.571Z" fill="url(#paint5_linear_68_755)"/>
<path d="M112.533 135.07C114.42 134.556 116.533 135.085 118.017 136.446C119.457 137.767 120.094 139.678 119.686 141.446C117.84 141.773 115.494 140.881 114.377 139.885C113.11 138.755 112.392 137.43 112.533 135.07Z" fill="url(#paint6_linear_68_755)"/>
<path d="M185.999 140.77C185.746 138.838 186.575 136.919 188.151 135.792C189.68 134.696 191.691 134.506 193.411 135.291C193.48 137.142 192.254 139.205 191.098 140.06C189.784 141.031 188.351 141.429 185.999 140.77Z" fill="url(#paint7_linear_68_755)"/>
<path d="M182.072 157.352C181.543 154.927 182.372 152.346 184.227 150.655C186.027 149.013 188.529 148.449 190.774 149.175C191.064 151.527 189.752 154.355 188.394 155.631C186.851 157.08 185.097 157.817 182.072 157.352Z" fill="url(#paint8_linear_68_755)"/>
<path d="M104.618 150.112C105.108 148.421 106.494 147.107 108.217 146.705C109.89 146.314 111.635 146.839 112.784 148.075C112.17 149.637 110.4 150.935 109.126 151.254C107.678 151.614 106.34 151.458 104.618 150.112Z" fill="url(#paint9_linear_68_755)"/>
<path d="M125.205 185.938C123.598 184.02 123.232 181.442 124.257 179.247C125.252 177.117 127.412 175.659 129.907 175.43C131.249 177.376 131.263 180.357 130.528 181.998C129.695 183.86 128.335 185.18 125.205 185.938Z" fill="url(#paint10_linear_68_755)"/>
<path d="M146.414 170.467C143.32 171.077 140.051 169.961 137.931 167.567C135.873 165.244 135.199 162.056 136.162 159.227C139.158 158.919 142.734 160.653 144.335 162.408C146.151 164.4 147.058 166.644 146.414 170.467Z" fill="url(#paint11_linear_68_755)"/>
<path d="M159.563 187.002C157.796 186.861 156.21 185.759 155.448 184.142C154.709 182.571 154.854 180.744 155.825 179.36C157.491 179.649 159.144 181.132 159.727 182.325C160.39 183.68 160.521 185.031 159.563 187.002Z" fill="url(#paint12_linear_68_755)"/>
<path d="M160.323 134.515C162.329 134.032 164.389 134.702 165.67 136.255C166.914 137.763 167.241 139.884 166.53 141.802C164.597 142.08 162.36 141.004 161.391 139.866C160.291 138.574 159.784 137.093 160.323 134.515Z" fill="url(#paint13_linear_68_755)"/>
<path d="M115.69 162.201C117.259 160.621 119.691 159.874 122.005 160.265C124.252 160.645 126.058 162.041 126.734 163.916C125.091 165.298 122.203 165.846 120.479 165.578C118.522 165.274 116.994 164.468 115.69 162.201Z" fill="url(#paint14_linear_68_755)"/>
<path d="M131.99 149.391C130.205 150.914 127.628 151.433 125.302 150.735C123.045 150.059 121.353 148.335 120.874 146.228C122.714 144.928 125.733 144.678 127.468 145.172C129.439 145.733 130.912 146.786 131.99 149.391Z" fill="url(#paint15_linear_68_755)"/>
<path d="M173.024 189.253C174.914 186.898 178.06 185.6 181.188 185.887C184.225 186.166 186.802 187.898 187.934 190.414C185.92 192.504 182.145 193.576 179.817 193.395C177.175 193.189 175.042 192.242 173.024 189.253Z" fill="url(#paint16_linear_68_755)"/>
<path d="M159.631 159.586C159.409 157.77 160.214 156.162 161.722 155.414C163.185 154.689 165.097 154.881 166.723 155.913C166.771 157.622 165.588 159.29 164.481 159.863C163.224 160.515 161.859 160.618 159.631 159.586Z" fill="url(#paint17_linear_68_755)"/>
<path d="M140.208 177.349C142.072 177.177 143.815 178.05 144.73 179.615C145.618 181.133 145.597 183.083 144.678 184.715C142.909 184.712 141.068 183.45 140.37 182.3C139.578 180.995 139.344 179.596 140.208 177.349Z" fill="url(#paint18_linear_68_755)"/>
<path d="M179.456 123.062C177.173 120.705 176.366 117.279 177.363 114.171C178.33 111.154 180.856 108.876 183.97 108.209C185.923 110.641 186.339 114.661 185.634 116.98C184.834 119.613 183.297 121.59 179.456 123.062Z" fill="url(#paint19_linear_68_755)"/>
<path d="M161.951 118.907C162.072 117.045 163.196 115.52 164.868 114.948C166.491 114.392 168.393 114.818 169.847 116.057C169.57 117.789 168.051 119.33 166.818 119.775C165.419 120.28 164.015 120.22 161.951 118.907Z" fill="url(#paint20_linear_68_755)"/>
<path d="M170.782 126.284C171.577 124.505 173.286 123.303 175.219 123.165C177.096 123.032 178.909 123.92 179.965 125.488C179.056 127.102 176.933 128.22 175.499 128.345C173.872 128.485 172.443 128.075 170.782 126.284Z" fill="url(#paint21_linear_68_755)"/>
<path d="M184.905 127.507C183.618 127.405 182.488 126.604 181.974 125.427C181.474 124.285 181.627 122.955 182.372 121.948C183.582 122.158 184.751 123.236 185.146 124.104C185.595 125.089 185.656 126.073 184.905 127.507Z" fill="url(#paint22_linear_68_755)"/>
<path d="M175.881 132.733C175.847 130.571 177.003 128.674 178.885 127.81C180.71 126.971 182.952 127.228 184.749 128.481C184.589 130.512 182.977 132.475 181.593 133.139C180.021 133.893 178.391 133.995 175.881 132.733Z" fill="url(#paint23_linear_68_755)"/>
<path d="M158.399 133.994C156.748 131.158 156.785 127.639 158.498 124.86C160.161 122.163 163.159 120.558 166.342 120.655C167.655 123.486 167.095 127.488 165.855 129.57C164.447 131.934 162.481 133.485 158.399 133.994Z" fill="url(#paint24_linear_68_755)"/>
<path d="M179.763 135.82C180.369 134.547 181.566 133.822 182.868 133.941C184.132 134.055 185.311 134.947 185.955 136.273C185.278 137.406 183.807 138.018 182.841 137.948C181.743 137.868 180.802 137.388 179.763 135.82Z" fill="url(#paint25_linear_68_755)"/>
<path d="M149.401 138.462C147.402 136.022 146.843 132.614 147.953 129.615C149.029 126.704 151.522 124.604 154.469 124.118C156.155 126.614 156.314 130.585 155.523 132.824C154.625 135.367 153.075 137.225 149.401 138.462Z" fill="url(#paint26_linear_68_755)"/>
<path d="M136.303 127.348C134.164 126.03 132.967 123.67 133.197 121.221C133.42 118.845 134.956 116.733 137.212 115.693C139.112 117.125 140.113 119.989 139.971 121.808C139.81 123.873 138.977 125.591 136.303 127.348Z" fill="url(#paint27_linear_68_755)"/>
<path d="M120.986 129.284C122.53 127.77 124.703 127.302 126.625 128.07C128.49 128.817 129.848 130.618 130.178 132.783C128.596 134.067 126.062 134.25 124.627 133.704C122.997 133.084 121.801 131.973 120.986 129.284Z" fill="url(#paint28_linear_68_755)"/>
<path d="M131.26 129.582C133.424 128.345 136.103 128.391 138.211 129.705C140.258 130.98 141.469 133.262 141.383 135.675C139.224 136.656 136.179 136.211 134.599 135.26C132.805 134.18 131.632 132.681 131.26 129.582Z" fill="url(#paint29_linear_68_755)"/>
<path d="M142.791 142.024C141.43 142.647 139.851 142.464 138.694 141.548C137.571 140.659 137.009 139.21 137.222 137.758C138.563 137.29 140.331 137.735 141.2 138.4C142.187 139.156 142.779 140.13 142.791 142.024Z" fill="url(#paint30_linear_68_755)"/>
<path d="M157.384 173.329C156.698 170.12 157.83 166.787 160.323 164.68C162.743 162.635 166.092 162.043 169.086 163.128C169.452 166.226 167.673 169.855 165.847 171.447C163.773 173.255 161.422 174.117 157.384 173.329Z" fill="url(#paint31_linear_68_755)"/>
<path d="M141.665 176.529C141.594 174.769 142.494 173.085 144.001 172.159C145.464 171.259 147.285 171.204 148.766 172.013C148.678 173.689 147.411 175.481 146.302 176.185C145.044 176.986 143.724 177.262 141.665 176.529Z" fill="url(#paint32_linear_68_755)"/>
<path d="M146.023 193.653C143.844 194.127 141.736 193.339 140.554 191.604C139.407 189.919 139.3 187.588 140.27 185.507C142.349 185.253 144.597 186.493 145.495 187.764C146.515 189.208 146.886 190.844 146.023 193.653Z" fill="url(#paint33_linear_68_755)"/>
<path d="M168.712 186.426C166.149 183.73 165.253 179.822 166.389 176.284C167.493 172.85 170.351 170.265 173.864 169.516C176.055 172.297 176.507 176.88 175.703 179.52C174.79 182.517 173.049 184.763 168.712 186.426Z" fill="url(#paint34_linear_68_755)"/>
<path d="M125.649 159.806C122.554 160.416 119.286 159.3 117.166 156.906C115.108 154.582 114.433 151.395 115.396 148.566C118.393 148.258 121.968 149.992 123.569 151.747C125.386 153.739 126.293 155.982 125.649 159.806Z" fill="url(#paint35_linear_68_755)"/>
<path d="M179.77 169.937C176.9 170.512 173.873 169.483 171.915 167.263C170.013 165.109 169.396 162.147 170.295 159.516C173.073 159.222 176.383 160.825 177.862 162.452C179.541 164.298 180.376 166.381 179.77 169.937Z" fill="url(#paint36_linear_68_755)"/>
<path d="M192.968 146.604C191.346 147.558 189.217 147.626 187.444 146.777C185.723 145.954 184.588 144.387 184.473 142.68C186.111 141.906 188.559 142.107 189.886 142.719C191.391 143.414 192.436 144.429 192.968 146.604Z" fill="url(#paint37_linear_68_755)"/>
<path d="M200.94 149.814C199.675 150.934 197.841 151.326 196.18 150.829C194.568 150.346 193.354 149.098 193.002 147.564C194.307 146.607 196.458 146.409 197.697 146.761C199.104 147.16 200.159 147.92 200.94 149.814Z" fill="url(#paint38_linear_68_755)"/>
<path d="M156.909 149.243C155.34 147.645 154.881 145.43 155.72 143.493C156.534 141.613 158.451 140.27 160.735 139.976C162.063 141.608 162.216 144.185 161.619 145.631C160.94 147.274 159.751 148.467 156.909 149.243Z" fill="url(#paint39_linear_68_755)"/>
<path d="M115.5 177.311C114.957 175.139 115.684 172.996 117.389 171.751C119.043 170.543 121.377 170.356 123.495 171.261C123.812 173.341 122.639 175.639 121.39 176.584C119.973 177.656 118.343 178.083 115.5 177.311Z" fill="url(#paint40_linear_68_755)"/>
<path d="M124.448 194.749C123.846 192.179 124.677 189.397 126.607 187.528C128.482 185.713 131.117 185.025 133.503 185.722C133.851 188.221 132.514 191.285 131.101 192.695C129.496 194.294 127.654 195.141 124.448 194.749Z" fill="url(#paint41_linear_68_755)"/>
<path d="M156.397 194.864C154.257 194.371 152.583 192.746 152.056 190.646C151.544 188.607 152.187 186.418 153.735 184.918C155.713 185.573 157.372 187.672 157.788 189.225C158.259 190.988 158.078 192.65 156.397 194.864Z" fill="url(#paint42_linear_68_755)"/>
<path d="M175.409 184.322C175.573 182.209 176.884 180.356 178.814 179.515C180.687 178.699 182.87 178.954 184.525 180.181C184.184 182.166 182.418 184.082 180.994 184.728C179.379 185.462 177.765 185.559 175.409 184.322Z" fill="url(#paint43_linear_68_755)"/>
<path d="M173.754 148.772C174.594 146.603 176.588 144.976 178.929 144.551C181.202 144.139 183.471 144.92 184.867 146.592C183.876 148.585 181.373 150.172 179.638 150.512C177.668 150.898 175.901 150.619 173.754 148.772Z" fill="url(#paint44_linear_68_755)"/>
<path d="M125.999 151.78C128.102 151.05 130.616 151.449 132.522 152.818C134.373 154.146 135.382 156.195 135.165 158.176C133.081 158.695 130.246 157.918 128.816 156.92C127.191 155.786 126.174 154.39 125.999 151.78Z" fill="url(#paint45_linear_68_755)"/>
<path d="M135.191 152.824C137.15 152.043 139.454 152.365 141.172 153.662C142.84 154.922 143.711 156.915 143.454 158.878C141.52 159.45 138.93 158.762 137.641 157.817C136.177 156.745 135.278 155.396 135.191 152.824Z" fill="url(#paint46_linear_68_755)"/>
<path d="M149.882 171.846C148.6 170.009 148.392 167.564 149.343 165.502C150.266 163.499 152.146 162.149 154.261 161.967C155.317 163.828 155.212 166.649 154.528 168.19C153.752 169.942 152.552 171.173 149.882 171.846Z" fill="url(#paint47_linear_68_755)"/>
<path d="M156.845 178.166C157.348 176.438 158.771 175.076 160.54 174.633C162.257 174.203 164.049 174.7 165.228 175.932C164.597 177.53 162.781 178.884 161.471 179.233C159.986 179.629 158.612 179.498 156.845 178.166Z" fill="url(#paint48_linear_68_755)"/>
<path d="M140.385 176.814C138.604 177.068 136.777 176.333 135.643 174.905C134.542 173.518 134.256 171.681 134.892 170.099C136.608 170.014 138.592 171.11 139.449 172.158C140.423 173.349 140.87 174.654 140.385 176.814Z" fill="url(#paint49_linear_68_755)"/>
<path d="M191.189 186.243C189.354 186.575 187.508 185.867 186.397 184.404C185.32 182.985 185.092 181.063 185.801 179.374C187.563 179.223 189.556 180.306 190.397 181.378C191.352 182.595 191.763 183.953 191.189 186.243Z" fill="url(#paint50_linear_68_755)"/>
<path d="M164.135 151.864C163.247 148.934 164.011 145.673 166.119 143.4C168.166 141.193 171.182 140.239 174.008 140.901C174.595 143.764 173.264 147.38 171.722 149.092C169.972 151.034 167.892 152.123 164.135 151.864Z" fill="url(#paint51_linear_68_755)"/>
<path d="M146.309 141.998C144.515 141.689 143.067 140.425 142.554 138.715C142.056 137.055 142.51 135.219 143.74 133.909C145.406 134.359 146.858 136.015 147.259 137.278C147.714 138.712 147.623 140.093 146.309 141.998Z" fill="url(#paint52_linear_68_755)"/>
<path d="M155.036 156.085C154.684 158.498 153.03 160.555 150.743 161.421C148.524 162.262 146.032 161.859 144.223 160.37C144.77 158.112 146.952 156.006 148.639 155.337C150.556 154.578 152.42 154.548 155.036 156.085Z" fill="url(#paint53_linear_68_755)"/>
<path d="M175.07 158.47C173.152 159.246 170.833 158.972 169.051 157.758C167.322 156.579 166.351 154.687 166.51 152.807C168.414 152.232 171.037 152.85 172.373 153.734C173.89 154.737 174.855 156.013 175.07 158.47Z" fill="url(#paint54_linear_68_755)"/>
<path d="M118.683 178.755C121.592 180.007 123.61 182.767 123.917 185.921C124.215 188.983 122.858 191.968 120.37 193.734C117.723 192.291 115.824 188.852 115.561 186.515C115.261 183.86 115.861 181.515 118.683 178.755Z" fill="url(#paint55_linear_68_755)"/>
<path d="M138.392 186.534C135.982 186.387 133.788 184.927 132.696 182.744C131.637 180.625 131.773 178.133 133.048 176.225C135.325 176.577 137.624 178.553 138.458 180.163C139.404 181.99 139.629 183.826 138.392 186.534Z" fill="url(#paint56_linear_68_755)"/>
<path d="M152.51 184.929C150.393 185.064 148.292 184.034 147.057 182.256C145.858 180.53 145.651 178.35 146.513 176.553C148.541 176.611 150.801 178.078 151.737 179.385C152.8 180.87 153.235 182.441 152.51 184.929Z" fill="url(#paint57_linear_68_755)"/>
<path d="M114.402 141.102C113.627 143.414 111.635 145.144 109.231 145.592C106.898 146.025 104.516 145.187 103 143.4C103.939 141.275 106.46 139.59 108.24 139.231C110.261 138.824 112.102 139.125 114.402 141.102Z" fill="url(#paint58_linear_68_755)"/>
<path d="M112.517 146.787C112.82 144.795 114.198 143.1 116.092 142.39C117.932 141.701 119.99 142.04 121.477 143.274C121.014 145.138 119.199 146.872 117.8 147.42C116.212 148.043 114.67 148.062 112.517 146.787Z" fill="url(#paint59_linear_68_755)"/>
<path d="M154.05 154.979C152.674 154.347 151.867 153.067 151.957 151.656C152.045 150.287 152.965 148.994 154.363 148.274C155.592 148.985 156.286 150.564 156.237 151.61C156.181 152.799 155.695 153.826 154.05 154.979Z" fill="url(#paint60_linear_68_755)"/>
<path d="M160.444 180.691C161.819 180.034 163.356 180.225 164.433 181.187C165.479 182.121 165.938 183.645 165.637 185.174C164.292 185.667 162.586 185.201 161.776 184.501C160.855 183.707 160.335 182.683 160.444 180.691Z" fill="url(#paint61_linear_68_755)"/>
<path d="M183.173 177.695C182.187 175.613 182.495 173.326 183.975 171.759C185.412 170.239 187.743 169.619 190.073 170.135C190.812 172.166 190.081 174.694 189.004 175.874C187.782 177.213 186.213 177.944 183.173 177.695Z" fill="url(#paint62_linear_68_755)"/>
<path d="M126.902 138.322C125.338 137.854 122.619 138.109 120.967 139.369C121.406 141.398 122.935 143.052 124.971 143.694C127.069 144.356 129.387 143.844 130.99 142.368C130.01 139.862 128.68 138.853 126.902 138.322Z" fill="url(#paint63_linear_68_755)"/>
<path d="M129.195 128.358C130.504 128.467 132.597 127.806 133.68 126.525C132.989 124.985 131.505 123.927 129.796 123.759C128.035 123.587 126.301 124.385 125.293 125.829C126.491 127.657 127.708 128.235 129.195 128.358Z" fill="url(#paint64_linear_68_755)"/>
<path d="M134.434 162.833C130.494 162.594 128.354 163.723 126.587 165.728C125.031 167.493 123.757 171.208 124.465 174.139C127.444 174.797 130.567 173.798 132.637 171.522C134.768 169.177 135.46 165.829 134.434 162.833Z" fill="url(#paint65_linear_68_755)"/>
<path d="M122.063 137.77C123.31 137.883 125.332 137.315 126.412 136.176C125.806 134.785 124.425 133.816 122.799 133.645C121.123 133.469 119.438 134.165 118.426 135.45C119.505 137.107 120.648 137.641 122.063 137.77Z" fill="url(#paint66_linear_68_755)"/>
<path d="M127.639 135.232C127.785 137.023 128.842 138.592 130.408 139.335C132.02 140.101 133.929 139.876 135.361 138.752C134.83 136.5 133.866 135.506 132.497 134.882C131.291 134.332 129.089 134.298 127.639 135.232Z" fill="url(#paint67_linear_68_755)"/>
<path d="M119.642 166.329C118.189 166.232 116.77 166.91 115.956 168.086C116.964 169.518 117.973 169.951 119.199 170.014C120.279 170.071 121.996 169.495 122.874 168.446C122.287 167.233 121.052 166.423 119.642 166.329Z" fill="url(#paint68_linear_68_755)"/>
<path d="M129.745 162.35C130.791 162.626 132.589 162.411 133.662 161.563C133.334 160.256 132.29 159.212 130.929 158.832C129.526 158.441 127.998 158.815 126.962 159.801C127.657 161.408 128.557 162.038 129.745 162.35Z" fill="url(#paint69_linear_68_755)"/>
<path d="M174.907 142.552C177.301 144.089 178.903 144.178 180.482 143.616C181.874 143.122 183.555 141.371 183.815 139.383C182.12 137.938 179.937 137.424 178.105 138.04C176.218 138.674 174.986 140.414 174.907 142.552Z" fill="url(#paint70_linear_68_755)"/>
<path d="M161.165 116.98C161.869 114.661 161.453 110.642 159.5 108.209C156.387 108.876 153.86 111.154 152.893 114.171C151.896 117.279 152.704 120.705 154.986 123.062C158.828 121.59 160.365 119.613 161.165 116.98Z" fill="url(#paint71_linear_68_755)"/>
<path d="M187.474 134.455C188.434 134.318 189.74 133.407 190.16 132.155C189.249 130.997 187.907 130.376 186.647 130.534C185.35 130.696 184.335 131.659 184.014 133.032C185.363 134.342 186.385 134.61 187.474 134.455Z" fill="url(#paint72_linear_68_755)"/>
<path d="M176.082 115.646C176.655 114.288 176.548 112.813 175.801 111.788C175.031 110.731 173.698 110.309 172.34 110.692C171.847 112.506 172.107 113.531 172.77 114.409C173.354 115.182 174.784 115.885 176.082 115.646Z" fill="url(#paint73_linear_68_755)"/>
<path d="M157.536 150.942C156.336 152.692 156.055 154.973 156.803 156.862C159.21 156.656 160.466 155.709 161.458 154.219C162.332 152.907 162.952 150.328 162.399 148.452C160.559 148.292 158.7 149.243 157.536 150.942Z" fill="url(#paint74_linear_68_755)"/>
<path d="M159.299 135.216C157.723 134.665 156.012 134.947 154.825 135.957C153.601 136.999 153.117 138.655 153.566 140.258C155.673 140.665 156.86 140.245 157.876 139.351C158.771 138.565 159.58 136.762 159.299 135.216Z" fill="url(#paint75_linear_68_755)"/>
<path d="M151.123 189.228C151.337 187.897 150.788 186.526 149.685 185.641C148.55 184.731 146.998 184.473 145.657 184.972C145.664 186.723 146.244 187.656 147.213 188.41C148.066 189.075 149.804 189.585 151.123 189.228Z" fill="url(#paint76_linear_68_755)"/>
<path d="M187.273 160.072C185.429 158.875 181.82 158.168 179.208 159.16C179.008 161.933 180.359 164.64 182.746 166.239C185.205 167.887 188.395 168.111 191.024 166.825C190.705 163.232 189.367 161.43 187.273 160.072Z" fill="url(#paint77_linear_68_755)"/>
<path d="M177.087 173.503C176.439 175.268 176.775 177.271 177.956 178.702C180.119 177.968 181.028 176.873 181.553 175.376C182.015 174.058 181.914 171.724 180.916 170.259C179.18 170.55 177.716 171.789 177.087 173.503Z" fill="url(#paint78_linear_68_755)"/>
<path d="M180.45 156.407C180.549 154.734 179.811 153.164 178.517 152.299C177.184 151.409 175.462 151.402 174.048 152.281C174.232 154.425 174.96 155.453 176.094 156.184C177.094 156.828 179.044 157.108 180.45 156.407Z" fill="url(#paint79_linear_68_755)"/>
<path d="M196.718 139.15C194.562 138.726 192.368 139.603 191.023 141.426C192.367 144.005 193.824 144.913 195.646 145.241C197.251 145.53 199.876 144.875 201.302 143.278C200.563 141.141 198.811 139.562 196.718 139.15Z" fill="url(#paint80_linear_68_755)"/>
<path d="M133.728 188.663C133.571 190.972 134.136 192.149 135.154 193.052C136.051 193.849 137.956 194.359 139.472 193.764C139.837 191.988 139.349 190.231 138.193 189.168C137.002 188.072 135.282 187.878 133.728 188.663Z" fill="url(#paint81_linear_68_755)"/>
<path d="M167.735 129.856C166.061 131.28 165.383 133.543 165.973 135.73C168.829 136.283 170.446 135.706 171.837 134.485C173.062 133.408 174.182 130.946 173.819 128.836C171.686 128.086 169.36 128.474 167.735 129.856Z" fill="url(#paint82_linear_68_755)"/>
<path d="M146.529 127C145.859 125.302 143.705 123.166 141.369 122.712C139.796 124.635 139.341 127.207 140.182 129.441C141.047 131.742 143.159 133.338 145.658 133.587C147.292 130.836 147.289 128.927 146.529 127Z" fill="url(#paint83_linear_68_755)"/>
<path d="M151.659 173.963C151.011 175.728 151.347 177.731 152.529 179.162C154.691 178.429 155.601 177.333 156.125 175.837C156.587 174.519 156.486 172.185 155.488 170.719C153.752 171.01 152.288 172.249 151.659 173.963Z" fill="url(#paint84_linear_68_755)"/>
<path d="M160.876 187.343C159.666 188.511 159.148 190.254 159.53 191.864C161.545 192.114 162.702 191.587 163.708 190.587C164.594 189.706 165.43 187.789 165.207 186.222C163.707 185.782 162.051 186.209 160.876 187.343Z" fill="url(#paint85_linear_68_755)"/>
<path d="M158.787 159.398C157.596 158.303 155.875 158.109 154.322 158.893C154.165 161.202 154.73 162.379 155.747 163.283C156.645 164.079 158.549 164.589 160.066 163.994C160.431 162.218 159.943 160.461 158.787 159.398Z" fill="url(#paint86_linear_68_755)"/>
<path d="M142.416 152.133C139.322 152.743 136.053 151.627 133.933 149.234C131.875 146.91 131.201 143.722 132.164 140.894C135.16 140.586 138.736 142.32 140.337 144.075C142.153 146.066 143.06 148.31 142.416 152.133Z" fill="url(#paint87_linear_68_755)"/>
</g>
<defs>
<linearGradient id="paint0_linear_68_755" x1="90.4854" y1="240.099" x2="207.557" y2="167.636" gradientUnits="userSpaceOnUse">
<stop stop-color="#8BC694"/>
<stop offset="0.9978" stop-color="#659476"/>
</linearGradient>
<linearGradient id="paint1_linear_68_755" x1="147.053" y1="105.266" x2="201.677" y2="159.394" gradientUnits="userSpaceOnUse">
<stop stop-color="#7392C1"/>
<stop offset="0.2483" stop-color="#5884AE"/>
<stop offset="1" stop-color="#0B5D78"/>
</linearGradient>
<linearGradient id="paint2_linear_68_755" x1="140.143" y1="112.24" x2="194.767" y2="166.367" gradientUnits="userSpaceOnUse">
<stop stop-color="#7392C1"/>
<stop offset="0.2483" stop-color="#5884AE"/>
<stop offset="1" stop-color="#0B5D78"/>
</linearGradient>
<linearGradient id="paint3_linear_68_755" x1="151.43" y1="100.849" x2="206.054" y2="154.976" gradientUnits="userSpaceOnUse">
<stop stop-color="#7392C1"/>
<stop offset="0.2483" stop-color="#5884AE"/>
<stop offset="1" stop-color="#0B5D78"/>
</linearGradient>
<linearGradient id="paint4_linear_68_755" x1="144.703" y1="107.638" x2="199.326" y2="161.766" gradientUnits="userSpaceOnUse">
<stop stop-color="#7392C1"/>
<stop offset="0.2483" stop-color="#5884AE"/>
<stop offset="1" stop-color="#0B5D78"/>
</linearGradient>
<linearGradient id="paint5_linear_68_755" x1="126.979" y1="125.523" x2="181.602" y2="179.651" gradientUnits="userSpaceOnUse">
<stop stop-color="#7392C1"/>
<stop offset="0.2483" stop-color="#5884AE"/>
<stop offset="1" stop-color="#0B5D78"/>
</linearGradient>
<linearGradient id="paint6_linear_68_755" x1="115.314" y1="137.295" x2="169.937" y2="191.423" gradientUnits="userSpaceOnUse">
<stop stop-color="#7392C1"/>
<stop offset="0.2483" stop-color="#5884AE"/>
<stop offset="1" stop-color="#0B5D78"/>
</linearGradient>
<linearGradient id="paint7_linear_68_755" x1="151.803" y1="100.472" x2="206.427" y2="154.6" gradientUnits="userSpaceOnUse">
<stop stop-color="#7392C1"/>
<stop offset="0.2483" stop-color="#5884AE"/>
<stop offset="1" stop-color="#0B5D78"/>
</linearGradient>
<linearGradient id="paint8_linear_68_755" x1="142.561" y1="109.799" x2="197.185" y2="163.927" gradientUnits="userSpaceOnUse">
<stop stop-color="#7392C1"/>
<stop offset="0.2483" stop-color="#5884AE"/>
<stop offset="1" stop-color="#0B5D78"/>
</linearGradient>
<linearGradient id="paint9_linear_68_755" x1="106.14" y1="146.553" x2="160.764" y2="200.681" gradientUnits="userSpaceOnUse">
<stop stop-color="#7392C1"/>
<stop offset="0.2483" stop-color="#5884AE"/>
<stop offset="1" stop-color="#0B5D78"/>
</linearGradient>
<linearGradient id="paint10_linear_68_755" x1="99.6859" y1="153.067" x2="154.309" y2="207.195" gradientUnits="userSpaceOnUse">
<stop stop-color="#7392C1"/>
<stop offset="0.2483" stop-color="#5884AE"/>
<stop offset="1" stop-color="#0B5D78"/>
</linearGradient>
<linearGradient id="paint11_linear_68_755" x1="114.256" y1="138.363" x2="168.88" y2="192.491" gradientUnits="userSpaceOnUse">
<stop stop-color="#7392C1"/>
<stop offset="0.2483" stop-color="#5884AE"/>
<stop offset="1" stop-color="#0B5D78"/>
</linearGradient>
<linearGradient id="paint12_linear_68_755" x1="113.27" y1="139.358" x2="167.894" y2="193.486" gradientUnits="userSpaceOnUse">
<stop stop-color="#7392C1"/>
<stop offset="0.2483" stop-color="#5884AE"/>
<stop offset="1" stop-color="#0B5D78"/>
</linearGradient>
<linearGradient id="paint13_linear_68_755" x1="138.825" y1="113.569" x2="193.448" y2="167.697" gradientUnits="userSpaceOnUse">
<stop stop-color="#7392C1"/>
<stop offset="0.2483" stop-color="#5884AE"/>
<stop offset="1" stop-color="#0B5D78"/>
</linearGradient>
<linearGradient id="paint14_linear_68_755" x1="105.417" y1="147.283" x2="160.04" y2="201.411" gradientUnits="userSpaceOnUse">
<stop stop-color="#7392C1"/>
<stop offset="0.2483" stop-color="#5884AE"/>
<stop offset="1" stop-color="#0B5D78"/>
</linearGradient>
<linearGradient id="paint15_linear_68_755" x1="115.496" y1="137.111" x2="170.12" y2="191.239" gradientUnits="userSpaceOnUse">
<stop stop-color="#7392C1"/>
<stop offset="0.2483" stop-color="#5884AE"/>
<stop offset="1" stop-color="#0B5D78"/>
</linearGradient>
<linearGradient id="paint16_linear_68_755" x1="121.411" y1="131.143" x2="176.034" y2="185.271" gradientUnits="userSpaceOnUse">
<stop stop-color="#7392C1"/>
<stop offset="0.2483" stop-color="#5884AE"/>
<stop offset="1" stop-color="#0B5D78"/>
</linearGradient>
<linearGradient id="paint17_linear_68_755" x1="128.801" y1="123.685" x2="183.424" y2="177.813" gradientUnits="userSpaceOnUse">
<stop stop-color="#7392C1"/>
<stop offset="0.2483" stop-color="#5884AE"/>
<stop offset="1" stop-color="#0B5D78"/>
</linearGradient>
<linearGradient id="paint18_linear_68_755" x1="106.994" y1="145.691" x2="161.618" y2="199.819" gradientUnits="userSpaceOnUse">
<stop stop-color="#7392C1"/>
<stop offset="0.2483" stop-color="#5884AE"/>
<stop offset="1" stop-color="#0B5D78"/>
</linearGradient>
<linearGradient id="paint19_linear_68_755" x1="171.382" y1="97.8567" x2="205.568" y2="157.311" gradientUnits="userSpaceOnUse">
<stop stop-color="#8BC694"/>
<stop offset="0.9978" stop-color="#659476"/>
</linearGradient>
<linearGradient id="paint20_linear_68_755" x1="158.78" y1="105.102" x2="192.966" y2="164.556" gradientUnits="userSpaceOnUse">
<stop stop-color="#8BC694"/>
<stop offset="0.9978" stop-color="#659476"/>
</linearGradient>
<linearGradient id="paint21_linear_68_755" x1="162.27" y1="103.096" x2="196.456" y2="162.55" gradientUnits="userSpaceOnUse">
<stop stop-color="#8BC694"/>
<stop offset="0.9978" stop-color="#659476"/>
</linearGradient>
<linearGradient id="paint22_linear_68_755" x1="168.902" y1="99.2826" x2="203.088" y2="158.736" gradientUnits="userSpaceOnUse">
<stop stop-color="#8BC694"/>
<stop offset="0.9978" stop-color="#659476"/>
</linearGradient>
<linearGradient id="paint23_linear_68_755" x1="163.943" y1="102.134" x2="198.129" y2="161.588" gradientUnits="userSpaceOnUse">
<stop stop-color="#8BC694"/>
<stop offset="0.9978" stop-color="#659476"/>
</linearGradient>
<linearGradient id="paint24_linear_68_755" x1="151.876" y1="109.073" x2="186.062" y2="168.527" gradientUnits="userSpaceOnUse">
<stop stop-color="#8BC694"/>
<stop offset="0.9978" stop-color="#659476"/>
</linearGradient>
<linearGradient id="paint25_linear_68_755" x1="163.509" y1="102.383" x2="197.695" y2="161.837" gradientUnits="userSpaceOnUse">
<stop stop-color="#8BC694"/>
<stop offset="0.9978" stop-color="#659476"/>
</linearGradient>
<linearGradient id="paint26_linear_68_755" x1="142.276" y1="114.592" x2="176.462" y2="174.046" gradientUnits="userSpaceOnUse">
<stop stop-color="#8BC694"/>
<stop offset="0.9978" stop-color="#659476"/>
</linearGradient>
<linearGradient id="paint27_linear_68_755" x1="134.99" y1="118.782" x2="169.176" y2="178.236" gradientUnits="userSpaceOnUse">
<stop stop-color="#8BC694"/>
<stop offset="0.9978" stop-color="#659476"/>
</linearGradient>
<linearGradient id="paint28_linear_68_755" x1="122.696" y1="125.851" x2="156.882" y2="185.305" gradientUnits="userSpaceOnUse">
<stop stop-color="#8BC694"/>
<stop offset="0.9978" stop-color="#659476"/>
</linearGradient>
<linearGradient id="paint29_linear_68_755" x1="130.099" y1="121.594" x2="164.285" y2="181.048" gradientUnits="userSpaceOnUse">
<stop stop-color="#8BC694"/>
<stop offset="0.9978" stop-color="#659476"/>
</linearGradient>
<linearGradient id="paint30_linear_68_755" x1="129.578" y1="121.894" x2="163.764" y2="181.348" gradientUnits="userSpaceOnUse">
<stop stop-color="#8BC694"/>
<stop offset="0.9978" stop-color="#659476"/>
</linearGradient>
<linearGradient id="paint31_linear_68_755" x1="134.85" y1="118.863" x2="169.036" y2="178.317" gradientUnits="userSpaceOnUse">
<stop stop-color="#8BC694"/>
<stop offset="0.9978" stop-color="#659476"/>
</linearGradient>
<linearGradient id="paint32_linear_68_755" x1="118.696" y1="128.151" x2="152.882" y2="187.605" gradientUnits="userSpaceOnUse">
<stop stop-color="#8BC694"/>
<stop offset="0.9978" stop-color="#659476"/>
</linearGradient>
<linearGradient id="paint33_linear_68_755" x1="110.396" y1="132.924" x2="144.582" y2="192.378" gradientUnits="userSpaceOnUse">
<stop stop-color="#8BC694"/>
<stop offset="0.9978" stop-color="#659476"/>
</linearGradient>
<linearGradient id="paint34_linear_68_755" x1="136.604" y1="117.854" x2="170.79" y2="177.308" gradientUnits="userSpaceOnUse">
<stop stop-color="#8BC694"/>
<stop offset="0.9978" stop-color="#659476"/>
</linearGradient>
<linearGradient id="paint35_linear_68_755" x1="108.669" y1="133.917" x2="142.855" y2="193.371" gradientUnits="userSpaceOnUse">
<stop stop-color="#8BC694"/>
<stop offset="0.9978" stop-color="#659476"/>
</linearGradient>
<linearGradient id="paint36_linear_68_755" x1="145.09" y1="112.975" x2="179.276" y2="172.428" gradientUnits="userSpaceOnUse">
<stop stop-color="#8BC694"/>
<stop offset="0.9978" stop-color="#659476"/>
</linearGradient>
<linearGradient id="paint37_linear_68_755" x1="164.131" y1="102.026" x2="198.317" y2="161.48" gradientUnits="userSpaceOnUse">
<stop stop-color="#8BC694"/>
<stop offset="0.9978" stop-color="#659476"/>
</linearGradient>
<linearGradient id="paint38_linear_68_755" x1="168.598" y1="99.4576" x2="202.784" y2="158.912" gradientUnits="userSpaceOnUse">
<stop stop-color="#8BC694"/>
<stop offset="0.9978" stop-color="#659476"/>
</linearGradient>
<linearGradient id="paint39_linear_68_755" x1="141.683" y1="114.934" x2="175.869" y2="174.388" gradientUnits="userSpaceOnUse">
<stop stop-color="#8BC694"/>
<stop offset="0.9978" stop-color="#659476"/>
</linearGradient>
<linearGradient id="paint40_linear_68_755" x1="99.3623" y1="139.268" x2="133.548" y2="198.722" gradientUnits="userSpaceOnUse">
<stop stop-color="#8BC694"/>
<stop offset="0.9978" stop-color="#659476"/>
</linearGradient>
<linearGradient id="paint41_linear_68_755" x1="99.5929" y1="139.135" x2="133.779" y2="198.589" gradientUnits="userSpaceOnUse">
<stop stop-color="#8BC694"/>
<stop offset="0.9978" stop-color="#659476"/>
</linearGradient>
<linearGradient id="paint42_linear_68_755" x1="119.196" y1="127.864" x2="153.382" y2="187.317" gradientUnits="userSpaceOnUse">
<stop stop-color="#8BC694"/>
<stop offset="0.9978" stop-color="#659476"/>
</linearGradient>
<linearGradient id="paint43_linear_68_755" x1="141.364" y1="115.116" x2="175.55" y2="174.57" gradientUnits="userSpaceOnUse">
<stop stop-color="#8BC694"/>
<stop offset="0.9978" stop-color="#659476"/>
</linearGradient>
<linearGradient id="paint44_linear_68_755" x1="155.81" y1="106.811" x2="189.996" y2="166.265" gradientUnits="userSpaceOnUse">
<stop stop-color="#8BC694"/>
<stop offset="0.9978" stop-color="#659476"/>
</linearGradient>
<linearGradient id="paint45_linear_68_755" x1="116.118" y1="129.633" x2="150.304" y2="189.087" gradientUnits="userSpaceOnUse">
<stop stop-color="#8BC694"/>
<stop offset="0.9978" stop-color="#659476"/>
</linearGradient>
<linearGradient id="paint46_linear_68_755" x1="122.309" y1="126.074" x2="156.495" y2="185.527" gradientUnits="userSpaceOnUse">
<stop stop-color="#8BC694"/>
<stop offset="0.9978" stop-color="#659476"/>
</linearGradient>
<linearGradient id="paint47_linear_68_755" x1="127.021" y1="123.364" x2="161.207" y2="182.818" gradientUnits="userSpaceOnUse">
<stop stop-color="#8BC694"/>
<stop offset="0.9978" stop-color="#659476"/>
</linearGradient>
<linearGradient id="paint48_linear_68_755" x1="129.386" y1="122.004" x2="163.572" y2="181.458" gradientUnits="userSpaceOnUse">
<stop stop-color="#8BC694"/>
<stop offset="0.9978" stop-color="#659476"/>
</linearGradient>
<linearGradient id="paint49_linear_68_755" x1="113.264" y1="131.274" x2="147.45" y2="190.728" gradientUnits="userSpaceOnUse">
<stop stop-color="#8BC694"/>
<stop offset="0.9978" stop-color="#659476"/>
</linearGradient>
<linearGradient id="paint50_linear_68_755" x1="147.433" y1="111.627" x2="181.619" y2="171.081" gradientUnits="userSpaceOnUse">
<stop stop-color="#7392C1"/>
<stop offset="0.2483" stop-color="#5884AE"/>
<stop offset="1" stop-color="#0B5D78"/>
</linearGradient>
<linearGradient id="paint51_linear_68_755" x1="148.676" y1="110.912" x2="182.862" y2="170.366" gradientUnits="userSpaceOnUse">
<stop stop-color="#8BC694"/>
<stop offset="0.9978" stop-color="#659476"/>
</linearGradient>
<linearGradient id="paint52_linear_68_755" x1="134.122" y1="119.281" x2="168.308" y2="178.735" gradientUnits="userSpaceOnUse">
<stop stop-color="#8BC694"/>
<stop offset="0.9978" stop-color="#659476"/>
</linearGradient>
<linearGradient id="paint53_linear_68_755" x1="128.946" y1="122.257" x2="163.132" y2="181.711" gradientUnits="userSpaceOnUse">
<stop stop-color="#8BC694"/>
<stop offset="0.9978" stop-color="#659476"/>
</linearGradient>
<linearGradient id="paint54_linear_68_755" x1="145.892" y1="112.513" x2="180.078" y2="171.967" gradientUnits="userSpaceOnUse">
<stop stop-color="#8BC694"/>
<stop offset="0.9978" stop-color="#659476"/>
</linearGradient>
<linearGradient id="paint55_linear_68_755" x1="94.4326" y1="142.103" x2="128.619" y2="201.556" gradientUnits="userSpaceOnUse">
<stop stop-color="#8BC694"/>
<stop offset="0.9978" stop-color="#659476"/>
</linearGradient>
<linearGradient id="paint56_linear_68_755" x1="108.346" y1="134.102" x2="142.532" y2="193.556" gradientUnits="userSpaceOnUse">
<stop stop-color="#8BC694"/>
<stop offset="0.9978" stop-color="#659476"/>
</linearGradient>
<linearGradient id="paint57_linear_68_755" x1="119.016" y1="127.967" x2="153.202" y2="187.421" gradientUnits="userSpaceOnUse">
<stop stop-color="#8BC694"/>
<stop offset="0.9978" stop-color="#659476"/>
</linearGradient>
<linearGradient id="paint58_linear_68_755" x1="105.092" y1="135.974" x2="139.278" y2="195.427" gradientUnits="userSpaceOnUse">
<stop stop-color="#8BC694"/>
<stop offset="0.9978" stop-color="#659476"/>
</linearGradient>
<linearGradient id="paint59_linear_68_755" x1="110.125" y1="133.08" x2="144.311" y2="192.534" gradientUnits="userSpaceOnUse">
<stop stop-color="#8BC694"/>
<stop offset="0.9978" stop-color="#659476"/>
</linearGradient>
<linearGradient id="paint60_linear_68_755" x1="135.134" y1="118.699" x2="169.32" y2="178.153" gradientUnits="userSpaceOnUse">
<stop stop-color="#8BC694"/>
<stop offset="0.9978" stop-color="#659476"/>
</linearGradient>
<linearGradient id="paint61_linear_68_755" x1="128.417" y1="122.562" x2="162.603" y2="182.015" gradientUnits="userSpaceOnUse">
<stop stop-color="#8BC694"/>
<stop offset="0.9978" stop-color="#659476"/>
</linearGradient>
<linearGradient id="paint62_linear_68_755" x1="149.969" y1="110.169" x2="184.155" y2="169.623" gradientUnits="userSpaceOnUse">
<stop stop-color="#8BC694"/>
<stop offset="0.9978" stop-color="#659476"/>
</linearGradient>
<linearGradient id="paint63_linear_68_755" x1="120.343" y1="124.259" x2="141.141" y2="185.766" gradientUnits="userSpaceOnUse">
<stop stop-color="#FFE980"/>
<stop offset="0.0908" stop-color="#FFE87B"/>
<stop offset="0.1958" stop-color="#FFE56D"/>
<stop offset="0.3077" stop-color="#FFE056"/>
<stop offset="0.4239" stop-color="#FFD836"/>
<stop offset="0.4815" stop-color="#FFD423"/>
<stop offset="0.5799" stop-color="#FACF22"/>
<stop offset="0.6936" stop-color="#ECC220"/>
<stop offset="0.8149" stop-color="#D5AB1D"/>
<stop offset="0.9407" stop-color="#B58C18"/>
<stop offset="1" stop-color="#A37B15"/>
</linearGradient>
<linearGradient id="paint64_linear_68_755" x1="127.967" y1="121.681" x2="148.764" y2="183.189" gradientUnits="userSpaceOnUse">
<stop stop-color="#FFE980"/>
<stop offset="0.0908" stop-color="#FFE87B"/>
<stop offset="0.1958" stop-color="#FFE56D"/>
<stop offset="0.3077" stop-color="#FFE056"/>
<stop offset="0.4239" stop-color="#FFD836"/>
<stop offset="0.4815" stop-color="#FFD423"/>
<stop offset="0.5799" stop-color="#FACF22"/>
<stop offset="0.6936" stop-color="#ECC220"/>
<stop offset="0.8149" stop-color="#D5AB1D"/>
<stop offset="0.9407" stop-color="#B58C18"/>
<stop offset="1" stop-color="#A37B15"/>
</linearGradient>
<linearGradient id="paint65_linear_68_755" x1="115.095" y1="126.034" x2="135.893" y2="187.541" gradientUnits="userSpaceOnUse">
<stop stop-color="#FFE980"/>
<stop offset="0.0908" stop-color="#FFE87B"/>
<stop offset="0.1958" stop-color="#FFE56D"/>
<stop offset="0.3077" stop-color="#FFE056"/>
<stop offset="0.4239" stop-color="#FFD836"/>
<stop offset="0.4815" stop-color="#FFD423"/>
<stop offset="0.5799" stop-color="#FACF22"/>
<stop offset="0.6936" stop-color="#ECC220"/>
<stop offset="0.8149" stop-color="#D5AB1D"/>
<stop offset="0.9407" stop-color="#B58C18"/>
<stop offset="1" stop-color="#A37B15"/>
</linearGradient>
<linearGradient id="paint66_linear_68_755" x1="118.7" y1="124.815" x2="139.497" y2="186.322" gradientUnits="userSpaceOnUse">
<stop stop-color="#FFE980"/>
<stop offset="0.0908" stop-color="#FFE87B"/>
<stop offset="0.1958" stop-color="#FFE56D"/>
<stop offset="0.3077" stop-color="#FFE056"/>
<stop offset="0.4239" stop-color="#FFD836"/>
<stop offset="0.4815" stop-color="#FFD423"/>
<stop offset="0.5799" stop-color="#FACF22"/>
<stop offset="0.6936" stop-color="#ECC220"/>
<stop offset="0.8149" stop-color="#D5AB1D"/>
<stop offset="0.9407" stop-color="#B58C18"/>
<stop offset="1" stop-color="#A37B15"/>
</linearGradient>
<linearGradient id="paint67_linear_68_755" x1="126.439" y1="122.198" x2="147.237" y2="183.705" gradientUnits="userSpaceOnUse">
<stop stop-color="#FFE980"/>
<stop offset="0.0908" stop-color="#FFE87B"/>
<stop offset="0.1958" stop-color="#FFE56D"/>
<stop offset="0.3077" stop-color="#FFE056"/>
<stop offset="0.4239" stop-color="#FFD836"/>
<stop offset="0.4815" stop-color="#FFD423"/>
<stop offset="0.5799" stop-color="#FACF22"/>
<stop offset="0.6936" stop-color="#ECC220"/>
<stop offset="0.8149" stop-color="#D5AB1D"/>
<stop offset="0.9407" stop-color="#B58C18"/>
<stop offset="1" stop-color="#A37B15"/>
</linearGradient>
<linearGradient id="paint68_linear_68_755" x1="106.157" y1="129.056" x2="126.954" y2="190.563" gradientUnits="userSpaceOnUse">
<stop stop-color="#FFE980"/>
<stop offset="0.0908" stop-color="#FFE87B"/>
<stop offset="0.1958" stop-color="#FFE56D"/>
<stop offset="0.3077" stop-color="#FFE056"/>
<stop offset="0.4239" stop-color="#FFD836"/>
<stop offset="0.4815" stop-color="#FFD423"/>
<stop offset="0.5799" stop-color="#FACF22"/>
<stop offset="0.6936" stop-color="#ECC220"/>
<stop offset="0.8149" stop-color="#D5AB1D"/>
<stop offset="0.9407" stop-color="#B58C18"/>
<stop offset="1" stop-color="#A37B15"/>
</linearGradient>
<linearGradient id="paint69_linear_68_755" x1="118.242" y1="124.969" x2="139.04" y2="186.477" gradientUnits="userSpaceOnUse">
<stop stop-color="#FFE980"/>
<stop offset="0.0908" stop-color="#FFE87B"/>
<stop offset="0.1958" stop-color="#FFE56D"/>
<stop offset="0.3077" stop-color="#FFE056"/>
<stop offset="0.4239" stop-color="#FFD836"/>
<stop offset="0.4815" stop-color="#FFD423"/>
<stop offset="0.5799" stop-color="#FACF22"/>
<stop offset="0.6936" stop-color="#ECC220"/>
<stop offset="0.8149" stop-color="#D5AB1D"/>
<stop offset="0.9407" stop-color="#B58C18"/>
<stop offset="1" stop-color="#A37B15"/>
</linearGradient>
<linearGradient id="paint70_linear_68_755" x1="168.236" y1="108.065" x2="189.033" y2="169.572" gradientUnits="userSpaceOnUse">
<stop stop-color="#FFE980"/>
<stop offset="0.0908" stop-color="#FFE87B"/>
<stop offset="0.1958" stop-color="#FFE56D"/>
<stop offset="0.3077" stop-color="#FFE056"/>
<stop offset="0.4239" stop-color="#FFD836"/>
<stop offset="0.4815" stop-color="#FFD423"/>
<stop offset="0.5799" stop-color="#FACF22"/>
<stop offset="0.6936" stop-color="#ECC220"/>
<stop offset="0.8149" stop-color="#D5AB1D"/>
<stop offset="0.9407" stop-color="#B58C18"/>
<stop offset="1" stop-color="#A37B15"/>
</linearGradient>
<linearGradient id="paint71_linear_68_755" x1="155.889" y1="112.24" x2="176.687" y2="173.747" gradientUnits="userSpaceOnUse">
<stop stop-color="#FFE980"/>
<stop offset="0.0908" stop-color="#FFE87B"/>
<stop offset="0.1958" stop-color="#FFE56D"/>
<stop offset="0.3077" stop-color="#FFE056"/>
<stop offset="0.4239" stop-color="#FFD836"/>
<stop offset="0.4815" stop-color="#FFD423"/>
<stop offset="0.5799" stop-color="#FACF22"/>
<stop offset="0.6936" stop-color="#ECC220"/>
<stop offset="0.8149" stop-color="#D5AB1D"/>
<stop offset="0.9407" stop-color="#B58C18"/>
<stop offset="1" stop-color="#A37B15"/>
</linearGradient>
<linearGradient id="paint72_linear_68_755" x1="177.71" y1="104.862" x2="198.507" y2="166.369" gradientUnits="userSpaceOnUse">
<stop stop-color="#FFE980"/>
<stop offset="0.0908" stop-color="#FFE87B"/>
<stop offset="0.1958" stop-color="#FFE56D"/>
<stop offset="0.3077" stop-color="#FFE056"/>
<stop offset="0.4239" stop-color="#FFD836"/>
<stop offset="0.4815" stop-color="#FFD423"/>
<stop offset="0.5799" stop-color="#FACF22"/>
<stop offset="0.6936" stop-color="#ECC220"/>
<stop offset="0.8149" stop-color="#D5AB1D"/>
<stop offset="0.9407" stop-color="#B58C18"/>
<stop offset="1" stop-color="#A37B15"/>
</linearGradient>
<linearGradient id="paint73_linear_68_755" x1="172.119" y1="106.752" x2="192.917" y2="168.26" gradientUnits="userSpaceOnUse">
<stop stop-color="#FFE980"/>
<stop offset="0.0908" stop-color="#FFE87B"/>
<stop offset="0.1958" stop-color="#FFE56D"/>
<stop offset="0.3077" stop-color="#FFE056"/>
<stop offset="0.4239" stop-color="#FFD836"/>
<stop offset="0.4815" stop-color="#FFD423"/>
<stop offset="0.5799" stop-color="#FACF22"/>
<stop offset="0.6936" stop-color="#ECC220"/>
<stop offset="0.8149" stop-color="#D5AB1D"/>
<stop offset="0.9407" stop-color="#B58C18"/>
<stop offset="1" stop-color="#A37B15"/>
</linearGradient>
<linearGradient id="paint74_linear_68_755" x1="146.953" y1="115.261" x2="167.75" y2="176.769" gradientUnits="userSpaceOnUse">
<stop stop-color="#FFE980"/>
<stop offset="0.0908" stop-color="#FFE87B"/>
<stop offset="0.1958" stop-color="#FFE56D"/>
<stop offset="0.3077" stop-color="#FFE056"/>
<stop offset="0.4239" stop-color="#FFD836"/>
<stop offset="0.4815" stop-color="#FFD423"/>
<stop offset="0.5799" stop-color="#FACF22"/>
<stop offset="0.6936" stop-color="#ECC220"/>
<stop offset="0.8149" stop-color="#D5AB1D"/>
<stop offset="0.9407" stop-color="#B58C18"/>
<stop offset="1" stop-color="#A37B15"/>
</linearGradient>
<linearGradient id="paint75_linear_68_755" x1="148.64" y1="114.691" x2="169.437" y2="176.199" gradientUnits="userSpaceOnUse">
<stop stop-color="#FFE980"/>
<stop offset="0.0908" stop-color="#FFE87B"/>
<stop offset="0.1958" stop-color="#FFE56D"/>
<stop offset="0.3077" stop-color="#FFE056"/>
<stop offset="0.4239" stop-color="#FFD836"/>
<stop offset="0.4815" stop-color="#FFD423"/>
<stop offset="0.5799" stop-color="#FACF22"/>
<stop offset="0.6936" stop-color="#ECC220"/>
<stop offset="0.8149" stop-color="#D5AB1D"/>
<stop offset="0.9407" stop-color="#B58C18"/>
<stop offset="1" stop-color="#A37B15"/>
</linearGradient>
<linearGradient id="paint76_linear_68_755" x1="126.499" y1="122.177" x2="147.297" y2="183.685" gradientUnits="userSpaceOnUse">
<stop stop-color="#FFE980"/>
<stop offset="0.0908" stop-color="#FFE87B"/>
<stop offset="0.1958" stop-color="#FFE56D"/>
<stop offset="0.3077" stop-color="#FFE056"/>
<stop offset="0.4239" stop-color="#FFD836"/>
<stop offset="0.4815" stop-color="#FFD423"/>
<stop offset="0.5799" stop-color="#FACF22"/>
<stop offset="0.6936" stop-color="#ECC220"/>
<stop offset="0.8149" stop-color="#D5AB1D"/>
<stop offset="0.9407" stop-color="#B58C18"/>
<stop offset="1" stop-color="#A37B15"/>
</linearGradient>
<linearGradient id="paint77_linear_68_755" x1="166.61" y1="108.615" x2="187.408" y2="170.122" gradientUnits="userSpaceOnUse">
<stop stop-color="#FFE980"/>
<stop offset="0.0908" stop-color="#FFE87B"/>
<stop offset="0.1958" stop-color="#FFE56D"/>
<stop offset="0.3077" stop-color="#FFE056"/>
<stop offset="0.4239" stop-color="#FFD836"/>
<stop offset="0.4815" stop-color="#FFD423"/>
<stop offset="0.5799" stop-color="#FACF22"/>
<stop offset="0.6936" stop-color="#ECC220"/>
<stop offset="0.8149" stop-color="#D5AB1D"/>
<stop offset="0.9407" stop-color="#B58C18"/>
<stop offset="1" stop-color="#A37B15"/>
</linearGradient>
<linearGradient id="paint78_linear_68_755" x1="158.05" y1="111.509" x2="178.848" y2="173.017" gradientUnits="userSpaceOnUse">
<stop stop-color="#FFE980"/>
<stop offset="0.0908" stop-color="#FFE87B"/>
<stop offset="0.1958" stop-color="#FFE56D"/>
<stop offset="0.3077" stop-color="#FFE056"/>
<stop offset="0.4239" stop-color="#FFD836"/>
<stop offset="0.4815" stop-color="#FFD423"/>
<stop offset="0.5799" stop-color="#FACF22"/>
<stop offset="0.6936" stop-color="#ECC220"/>
<stop offset="0.8149" stop-color="#D5AB1D"/>
<stop offset="0.9407" stop-color="#B58C18"/>
<stop offset="1" stop-color="#A37B15"/>
</linearGradient>
<linearGradient id="paint79_linear_68_755" x1="162.342" y1="110.058" x2="183.139" y2="171.565" gradientUnits="userSpaceOnUse">
<stop stop-color="#FFE980"/>
<stop offset="0.0908" stop-color="#FFE87B"/>
<stop offset="0.1958" stop-color="#FFE56D"/>
<stop offset="0.3077" stop-color="#FFE056"/>
<stop offset="0.4239" stop-color="#FFD836"/>
<stop offset="0.4815" stop-color="#FFD423"/>
<stop offset="0.5799" stop-color="#FACF22"/>
<stop offset="0.6936" stop-color="#ECC220"/>
<stop offset="0.8149" stop-color="#D5AB1D"/>
<stop offset="0.9407" stop-color="#B58C18"/>
<stop offset="1" stop-color="#A37B15"/>
</linearGradient>
<linearGradient id="paint80_linear_68_755" x1="182.894" y1="103.109" x2="203.691" y2="164.616" gradientUnits="userSpaceOnUse">
<stop stop-color="#FFE980"/>
<stop offset="0.0908" stop-color="#FFE87B"/>
<stop offset="0.1958" stop-color="#FFE56D"/>
<stop offset="0.3077" stop-color="#FFE056"/>
<stop offset="0.4239" stop-color="#FFD836"/>
<stop offset="0.4815" stop-color="#FFD423"/>
<stop offset="0.5799" stop-color="#FACF22"/>
<stop offset="0.6936" stop-color="#ECC220"/>
<stop offset="0.8149" stop-color="#D5AB1D"/>
<stop offset="0.9407" stop-color="#B58C18"/>
<stop offset="1" stop-color="#A37B15"/>
</linearGradient>
<linearGradient id="paint81_linear_68_755" x1="114.686" y1="126.172" x2="135.484" y2="187.679" gradientUnits="userSpaceOnUse">
<stop stop-color="#FFE980"/>
<stop offset="0.0908" stop-color="#FFE87B"/>
<stop offset="0.1958" stop-color="#FFE56D"/>
<stop offset="0.3077" stop-color="#FFE056"/>
<stop offset="0.4239" stop-color="#FFD836"/>
<stop offset="0.4815" stop-color="#FFD423"/>
<stop offset="0.5799" stop-color="#FACF22"/>
<stop offset="0.6936" stop-color="#ECC220"/>
<stop offset="0.8149" stop-color="#D5AB1D"/>
<stop offset="0.9407" stop-color="#B58C18"/>
<stop offset="1" stop-color="#A37B15"/>
</linearGradient>
<linearGradient id="paint82_linear_68_755" x1="162.377" y1="110.046" x2="183.175" y2="171.553" gradientUnits="userSpaceOnUse">
<stop stop-color="#FFE980"/>
<stop offset="0.0908" stop-color="#FFE87B"/>
<stop offset="0.1958" stop-color="#FFE56D"/>
<stop offset="0.3077" stop-color="#FFE056"/>
<stop offset="0.4239" stop-color="#FFD836"/>
<stop offset="0.4815" stop-color="#FFD423"/>
<stop offset="0.5799" stop-color="#FACF22"/>
<stop offset="0.6936" stop-color="#ECC220"/>
<stop offset="0.8149" stop-color="#D5AB1D"/>
<stop offset="0.9407" stop-color="#B58C18"/>
<stop offset="1" stop-color="#A37B15"/>
</linearGradient>
<linearGradient id="paint83_linear_68_755" x1="139.796" y1="117.681" x2="160.593" y2="179.189" gradientUnits="userSpaceOnUse">
<stop stop-color="#FFE980"/>
<stop offset="0.0908" stop-color="#FFE87B"/>
<stop offset="0.1958" stop-color="#FFE56D"/>
<stop offset="0.3077" stop-color="#FFE056"/>
<stop offset="0.4239" stop-color="#FFD836"/>
<stop offset="0.4815" stop-color="#FFD423"/>
<stop offset="0.5799" stop-color="#FACF22"/>
<stop offset="0.6936" stop-color="#ECC220"/>
<stop offset="0.8149" stop-color="#D5AB1D"/>
<stop offset="0.9407" stop-color="#B58C18"/>
<stop offset="1" stop-color="#A37B15"/>
</linearGradient>
<linearGradient id="paint84_linear_68_755" x1="135.092" y1="119.272" x2="155.889" y2="180.78" gradientUnits="userSpaceOnUse">
<stop stop-color="#FFE980"/>
<stop offset="0.0908" stop-color="#FFE87B"/>
<stop offset="0.1958" stop-color="#FFE56D"/>
<stop offset="0.3077" stop-color="#FFE056"/>
<stop offset="0.4239" stop-color="#FFD836"/>
<stop offset="0.4815" stop-color="#FFD423"/>
<stop offset="0.5799" stop-color="#FACF22"/>
<stop offset="0.6936" stop-color="#ECC220"/>
<stop offset="0.8149" stop-color="#D5AB1D"/>
<stop offset="0.9407" stop-color="#B58C18"/>
<stop offset="1" stop-color="#A37B15"/>
</linearGradient>
<linearGradient id="paint85_linear_68_755" x1="138.399" y1="118.154" x2="159.196" y2="179.661" gradientUnits="userSpaceOnUse">
<stop stop-color="#FFE980"/>
<stop offset="0.0908" stop-color="#FFE87B"/>
<stop offset="0.1958" stop-color="#FFE56D"/>
<stop offset="0.3077" stop-color="#FFE056"/>
<stop offset="0.4239" stop-color="#FFD836"/>
<stop offset="0.4815" stop-color="#FFD423"/>
<stop offset="0.5799" stop-color="#FACF22"/>
<stop offset="0.6936" stop-color="#ECC220"/>
<stop offset="0.8149" stop-color="#D5AB1D"/>
<stop offset="0.9407" stop-color="#B58C18"/>
<stop offset="1" stop-color="#A37B15"/>
</linearGradient>
<linearGradient id="paint86_linear_68_755" x1="142.2" y1="116.868" x2="162.998" y2="178.376" gradientUnits="userSpaceOnUse">
<stop stop-color="#FFE980"/>
<stop offset="0.0908" stop-color="#FFE87B"/>
<stop offset="0.1958" stop-color="#FFE56D"/>
<stop offset="0.3077" stop-color="#FFE056"/>
<stop offset="0.4239" stop-color="#FFD836"/>
<stop offset="0.4815" stop-color="#FFD423"/>
<stop offset="0.5799" stop-color="#FACF22"/>
<stop offset="0.6936" stop-color="#ECC220"/>
<stop offset="0.8149" stop-color="#D5AB1D"/>
<stop offset="0.9407" stop-color="#B58C18"/>
<stop offset="1" stop-color="#A37B15"/>
</linearGradient>
<linearGradient id="paint87_linear_68_755" x1="128.664" y1="121.445" x2="149.462" y2="182.953" gradientUnits="userSpaceOnUse">
<stop stop-color="#FFE980"/>
<stop offset="0.0908" stop-color="#FFE87B"/>
<stop offset="0.1958" stop-color="#FFE56D"/>
<stop offset="0.3077" stop-color="#FFE056"/>
<stop offset="0.4239" stop-color="#FFD836"/>
<stop offset="0.4815" stop-color="#FFD423"/>
<stop offset="0.5799" stop-color="#FACF22"/>
<stop offset="0.6936" stop-color="#ECC220"/>
<stop offset="0.8149" stop-color="#D5AB1D"/>
<stop offset="0.9407" stop-color="#B58C18"/>
<stop offset="1" stop-color="#A37B15"/>
</linearGradient>
<clipPath id="clip0_68_755">
<rect width="248" height="89.9827" fill="white" transform="translate(103 105)"/>
</clipPath>
</defs>
</svg>
