<svg xmlns="http://www.w3.org/2000/svg" width="220" height="54" viewBox="0 0 220 54">
  <g fill="#FFF" fill-rule="evenodd" transform="translate(.659 1.309)">
    <path d="M13.6348945 33.1643951L13.6348945 19.016299C13.6348945 17.6942343 13.5908257 17.253546 13.3264128 16.6806513 13.017931 16.0186174 12.2687609 15.6219979 11.3433156 15.6219979 9.27208083 15.6219979 7.11170683 17.1213395 3.67433846 20.9553273L3.67433846 33.1643951.368175004 33.1643951.368175004 1.03321364 3.67433846 1.03321364 3.67433846 17.3857525C5.04047204 15.8433436 5.39302265 15.4467242 6.3625368 14.6524838 7.90494568 13.3744878 9.84497556 12.6693866 11.739935 12.6693866 15.2654411 12.6693866 16.9851268 14.4762085 16.9851268 18.2230602L16.9851268 33.1643951 13.6348945 33.1643951zM39.5033951 33.1643951L39.5033951 29.0209239C37.1667458 32.2389497 34.5666851 33.7813586 31.570005 33.7813586 28.0875662 33.7813586 26.2366756 31.8423303 26.2366756 28.1836162L26.2366756 13.1982125 29.542839 13.1982125 29.542839 27.3463086C29.542839 29.8151643 30.2479402 30.8277458 31.9225556 30.8277458 34.0378592 30.8277458 37.2108146 28.5802357 39.5033951 25.4072803L39.5033951 13.1982125 42.8526258 13.1982125 42.8526258 33.1643951 39.5033951 33.1643951zM78.9463959 33.1643951L78.9463959 19.016299C78.9463959 17.5620278 78.9023271 17.2976148 78.6379141 16.6806513 78.2853635 16.0186174 77.5361935 15.6219979 76.6107482 15.6219979 74.7588559 15.6219979 72.7757588 16.8569266 69.8672163 19.9858132L68.941771 20.9553273 68.941771 33.1643951 65.6356075 33.1643951 65.6356075 19.016299C65.6356075 17.5620278 65.5915387 17.2976148 65.3271258 16.6806513 64.9745752 16.0186174 64.2254051 15.6219979 63.2999598 15.6219979 61.2727938 15.6219979 59.1124198 17.1213395 55.6309826 20.9553273L55.6309826 33.1643951 52.3248192 33.1643951 52.3248192 13.1982125 55.6309826 13.1982125 55.6309826 17.3857525C56.9971162 15.8433436 57.3937357 15.4467242 58.3632498 14.6524838 59.8615899 13.3744878 61.8456886 12.6693866 63.6965792 12.6693866 67.0017411 12.6693866 68.677358 14.2117955 68.8977022 17.4298213 70.3079046 15.8433436 70.704524 15.4467242 71.6740382 14.6524838 73.1723782 13.3744878 75.1564769 12.6693866 77.006366 12.6693866 80.5328736 12.6693866 82.2525593 14.4762085 82.2525593 18.2230602L82.2525593 33.1643951 78.9463959 33.1643951zM101.682104 24.040746L94.1904035 25.9807759C93.7046448 26.9052197 93.6165072 27.3459079 93.6165072 28.1401484 93.6165072 29.7266261 94.6751606 30.740209 96.3057071 30.740209 97.8040472 30.740209 98.8176301 30.255452 101.682104 28.1842172L101.682104 24.040746zM105.869644 33.7378907C103.137377 33.5606139 102.166861 32.8555127 101.991587 30.9605532 100.978004 31.8419297 100.536314 32.1944803 99.8752819 32.5470309 98.6413548 33.2521321 97.0548771 33.6928203 95.6446747 33.6928203 92.4266489 33.6928203 90.3103437 31.6215856 90.3103437 28.4486301 90.3103437 25.5390861 91.8537542 23.6000578 94.7632982 22.8949566L101.682104 21.2644101 101.682104 17.6497648C101.682104 16.0192183 100.449178 15.1819106 97.8921848 15.1819106 95.8199485 15.1819106 94.8514359 15.7548053 94.8514359 16.9005948 94.8514359 17.1209389 94.8955047 17.2972142 95.0267096 17.6497648L91.6774789 18.354866C91.3689971 17.8260401 91.3249283 17.605696 91.3249283 17.1209389 91.3249283 14.4768094 94.2334707 12.668986 98.5091484 12.668986 102.520413 12.668986 105.032336 14.5649471 105.032336 17.6497648L105.032336 28.4486301 105.032336 29.9029014C105.120474 30.4317273 105.6493 30.7842779 106.663884 30.9605532L105.869644 33.7378907zM128.080732 33.1643951L128.080732 19.016299C128.080732 17.6942343 127.992595 17.253546 127.772251 16.6806513 127.463769 16.0186174 126.67053 15.6219979 125.745085 15.6219979 123.717919 15.6219979 121.557545 17.1213395 118.076107 20.9553273L118.076107 33.1643951 114.769944 33.1643951 114.769944 13.1982125 118.076107 13.1982125 118.076107 17.3857525C119.442241 15.8433436 119.83886 15.4467242 120.808375 14.6524838 122.306715 13.3744878 124.290813 12.6693866 126.141704 12.6693866 129.66721 12.6693866 131.386896 14.4762085 131.386896 18.2230602L131.386896 33.1643951 128.080732 33.1643951zM153.331067 17.2533457C152.802242 17.7821716 152.09714 18.443204 151.171695 19.2805117 149.80456 20.5144388 149.453011 20.7798533 148.350289 21.5290233 149.05539 23.2477075 149.275734 23.6002581 150.554731 25.7596305 151.303901 26.9945592 151.832727 27.8749342 152.141209 28.3156224 152.449691 28.8013811 153.110723 29.6827576 154.080237 31.0488911 154.43379 31.4895794 154.961614 32.2387494 155.622646 33.1641948L151.479175 33.1641948C150.068973 31.3573729 149.585217 30.6082029 148.570633 28.9776564 148.175015 28.3156224 147.689256 27.5223836 147.204499 26.6850759 146.190916 24.9223229 146.05871 24.6579099 145.573953 23.2036387L143.72206 24.3053593 142.311858 33.1641948 139.006696 33.1641948 144.075613 1.29842784 147.468912.725533114 144.295957 20.6917156C146.102779 19.5008558 146.80788 18.9720299 148.042808 17.9143781 148.526564 17.5177587 149.231665 16.9007951 150.113042 16.0634874 151.479175 14.7854915 151.788659 14.4770097 152.714104 13.1980122L156.857575 13.1980122C155.138891 15.3133158 154.477858 16.1075563 153.331067 17.2533457M168.709585 5.39692875C168.401103 6.85119998 167.432591 7.86478296 166.329869 7.86478296 165.53663 7.86478296 164.875597 6.7189935 164.875597 5.26472227 164.875597 5.08844697 164.875597 4.91217167 164.919666 4.73589637 165.228148 3.28162513 166.197662 2.26704059 167.299383 2.26704059 168.093623 2.26704059 168.753654 3.41383161 168.753654 4.86810284 168.753654 5.04437814 168.753654 5.22065345 168.709585 5.39692875L168.709585 5.39692875zM163.772875 33.1642949L160.467713 33.1642949 163.597601 13.5065942 166.990901 12.9336994 163.772875 33.1642949zM191.230157 17.9144782L188.85044 33.1642949 185.500208 33.1642949 187.835856 18.487373 187.968062 17.5619276C188.012131 17.3415835 188.0562 17.1212394 188.0562 16.8568264 188.0562 15.9313811 187.747718 15.4906929 187.174823 15.4906929 186.161241 15.4906929 184.6629 16.5483447 182.856079 18.5314418 181.225532 20.250126 179.683123 22.1901559 178.62447 23.8647712 178.183782 24.5258036 177.831231 25.186836 177.610887 25.8037995 177.302405 26.5970384 176.861717 28.2716537 176.685442 29.2862383L176.067476 33.1642949 172.763316 33.1642949 175.892203 13.5065942 179.285502 12.9336994 177.743093 20.9552272C178.183782 20.3382636 178.536332 19.8975754 178.800745 19.5890936 180.12281 17.7822718 180.916049 16.8568264 182.018771 15.7991746 184.134075 13.6828695 186.161241 12.6692865 188.012131 12.6692865 190.304712 12.6692865 191.362363 13.7710071 191.362363 16.1957941 191.362363 16.72462 191.318295 17.3856523 191.230157 17.9144782M208.28309 15.0936728C204.139619 15.0936728 200.746319 20.7795528 200.746319 27.6552911 200.746319 29.6383883 201.187007 30.6519712 202.068384 30.6519712 202.685347 30.6519712 204.09555 29.6824571 205.726096 28.2281859 206.872887 27.170534 208.767847 25.01016 209.737361 23.6440265 210.574669 22.4541682 211.235701 21.0439658 211.411976 19.8531059L211.984871 16.2835311C210.840083 15.4462234 209.737361 15.0936728 208.28309 15.0936728L208.28309 15.0936728zM212.601835 33.1638943L209.297674 33.1638943 210.662806 26.2440872C210.266187 26.8620523 209.957705 27.301739 209.737361 27.6112223 208.811916 28.8451494 207.754264 29.9909389 206.564406 31.0485907 204.669446 32.6360699 202.289729 33.869997 200.922594 33.869997 198.718151 33.869997 197.131674 31.3570724 197.131674 27.8756353 197.131674 24.6135406 198.146258 21.0439658 199.909011 17.9581464 201.980246 14.4767092 204.932857 12.5817498 208.415296 12.5817498 209.869567 12.5817498 211.147563 12.8902315 212.426561 13.5071951L214.32152 1.29812737 217.75989.725232645 212.601835 33.1638943zM4.31904534 50.9245323L1.51366399 47.5883219 4.23591551 44.2521115 5.64511636 44.2521115 2.82571311 47.5883219 5.81337914 50.9245323 4.31904534 50.9245323zM.368876099 50.9245323L1.43053416 50.9245323 1.43053416 44.2521115.368876099 44.2521115.368876099 50.9245323z"/>
    <polygon points="8.112 50.925 9.173 50.925 9.173 44.252 8.112 44.252"/>
    <path d="M17.8245378 51.0081629L14.0556517 46.1926422C13.8323028 45.8991838 13.749173 45.7599664 13.7071073 45.5786833L13.7071073 50.925033 12.7295806 50.925033 12.7295806 44.2516107 13.7912387 44.2516107 17.5591233 48.9980235C17.6843188 49.1382425 17.796494 49.4026554 17.8245378 49.6119824L17.8245378 44.2516107 18.7880425 44.2516107 18.7880425 51.0081629 17.8245378 51.0081629zM26.5016895 45.5920041C26.0840372 45.2434598 25.6503599 45.1322861 24.7148989 45.1322861L23.4028498 45.1322861 23.4028498 50.0449586 24.6317691 50.0449586C25.5952739 50.0449586 26.0549918 49.919763 26.5157114 49.5561952 27.0465404 49.1235195 27.3950847 48.3282775 27.3950847 47.5740997 27.3950847 46.8069015 27.0605623 46.0527236 26.5016895 45.5920041M27.5493256 50.0038944C26.9483871 50.6318752 26.0970575 50.924332 24.7990303 50.924332L22.3421933 50.924332 22.3421933 44.2519112 24.7990303 44.2519112C26.0840372 44.2519112 26.9483871 44.5453695 27.5633475 45.1743518 28.1071969 45.7322231 28.5118288 46.7508139 28.5118288 47.5891231 28.5118288 48.4404527 28.1352407 49.3749121 27.5493256 50.0038944"/>
    <polygon points="31.131 50.925 31.131 44.252 35.263 44.252 35.263 45.131 32.193 45.131 32.193 47.058 34.733 47.058 34.733 47.938 32.193 47.938 32.193 50.045 35.347 50.045 35.347 50.925"/>
    <path d="M41.2761638 45.3132688C41.0528149 45.1460076 40.9686835 45.1319857 40.2014854 45.1319857L39.1548508 45.1319857 39.1548508 47.3234081 40.2014854 47.3234081C40.8855537 47.3234081 41.0247711 47.2953643 41.3182295 47.0439717 41.5696221 46.8206229 41.6807957 46.5552084 41.6807957 46.1926422 41.6807957 45.8020321 41.5415783 45.5085738 41.2761638 45.3132688L41.2761638 45.3132688zM41.8771023 50.925033L40.117354 48.2027815 39.1548508 48.2027815 39.1548508 50.925033 38.0931927 50.925033 38.0931927 44.2516107 40.3407028 44.2516107C41.9462102 44.2516107 42.8255836 44.9216572 42.8255836 46.1505765 42.8255836 47.1841907 42.1976028 47.9654108 41.2621419 48.1186501L43.10502 50.925033 41.8771023 50.925033zM48.4328408 45.0198105C46.9675524 45.0198105 45.8508083 46.1225327 45.8508083 47.5888227 45.8508083 49.0541111 46.9675524 50.1708552 48.4328408 50.1708552 49.8981293 50.1708552 51.0008515 49.0541111 51.0008515 47.5888227 51.0008515 46.1225327 49.8981293 45.0198105 48.4328408 45.0198105M48.4328408 51.0502286C46.283484 51.0502286 44.7340642 49.598962 44.7340642 47.5888227 44.7340642 45.5917036 46.283484 44.1264152 48.4328408 44.1264152 50.5681757 44.1264152 52.1316174 45.5917036 52.1316174 47.5888227 52.1316174 49.598962 50.5681757 51.0502286 48.4328408 51.0502286M57.0684276 45.1317853L55.9226381 45.1317853 55.9226381 47.3933173C56.0898994 47.4343815 56.5936862 47.5325348 57.207645 47.5325348 58.0169089 47.5325348 58.5607583 47.0307511 58.5607583 46.2625513 58.5607583 45.4663078 58.1290841 45.1317853 57.0684276 45.1317853M57.3188186 48.4119081C56.7889912 48.4119081 56.1600089 48.3428002 55.9226381 48.2726907L55.9226381 50.9248327 54.8619816 50.9248327 54.8619816 44.252412 57.1796012 44.252412C58.7700852 44.252412 59.6214148 44.9645241 59.6214148 46.3036155 59.6214148 47.5465567 58.6729335 48.4119081 57.3188186 48.4119081M64.2378245 51.0922943L63.6789517 51.0922943 60.7764186 44.2516107 61.9212065 44.2516107 63.9303443 49.068133C63.97241 49.1522644 64.0014554 49.2494161 64.0014554 49.3756132 64.0134741 49.2494161 64.0284976 49.1793066 64.0845852 49.068133L65.9545056 44.2516107 67.0992935 44.2516107 64.2378245 51.0922943zM71.3407176 45.215416L70.1949281 48.2020804 72.4714836 48.2020804 71.3407176 45.215416zM73.5321401 50.924332L72.7639403 49.0684335 69.9014698 49.0684335 69.1492951 50.924332 68.087637 50.924332 70.8098886 44.08465 71.8565232 44.08465 74.5777731 50.924332 73.5321401 50.924332zM81.9589007 51.0081629L78.189013 46.1926422C77.9656642 45.8991838 77.8825344 45.7599664 77.8404687 45.5786833L77.8404687 50.925033 76.862942 50.925033 76.862942 44.2516107 77.9246001 44.2516107 81.6924846 48.9980235C81.8186817 49.1382425 81.9308569 49.4026554 81.9589007 49.6119824L81.9589007 44.2516107 82.9214039 44.2516107 82.9214039 51.0081629 81.9589007 51.0081629zM91.6125775 50.8135589C91.0256609 50.9527764 90.2023751 51.06395 89.6435023 51.06395 87.3549281 51.06395 85.6662908 49.5706178 85.6662908 47.5745003 85.6662908 45.6064266 87.3128624 44.1401366 89.5463506 44.1401366 90.0771796 44.1401366 90.7051603 44.2102461 91.08275 44.2943775 91.4172725 44.3785089 91.6125775 44.4616387 92.0732971 44.6990094L91.6265994 45.5783828C91.4172725 45.4531873 91.2630316 45.3690559 91.1658799 45.3269902 90.7332041 45.1457071 90.0901999 45.0064897 89.5753959 45.0064897 87.9688869 45.0064897 86.7830349 46.0801665 86.7830349 47.5184127 86.7830349 49.0397887 88.0940824 50.1855782 89.8107635 50.1855782 90.1472891 50.1855782 90.4397458 50.1565328 91.0957704 50.0453592L91.0957704 47.9370665 92.1564269 47.9370665 92.1564269 50.6593181C91.9190562 50.7294276 91.737773 50.7855152 91.6125775 50.8135589"/>
    <polygon points="99.255 50.925 99.255 44.252 103.387 44.252 103.387 45.131 100.316 45.131 100.316 47.058 102.857 47.058 102.857 47.938 100.316 47.938 100.316 50.045 103.471 50.045 103.471 50.925"/>
    <path d="M111.312344,51.0081629 L107.543458,46.1926422 C107.320109,45.8991838 107.235978,45.7599664 107.194913,45.5786833 L107.194913,50.925033 L106.217387,50.925033 L106.217387,44.2516107 L107.278043,44.2516107 L111.046929,48.9980235 C111.172125,49.1382425 111.2843,49.4026554 111.312344,49.6119824 L111.312344,44.2516107 L112.274847,44.2516107 L112.274847,51.0081629 L111.312344,51.0081629 Z"/>
    <polygon points="118.563 48.272 121.229 48.272 121.229 47.212 118.563 47.212"/>
    <path d="M126.642887 45.0198105C125.177598 45.0198105 124.060854 46.1225327 124.060854 47.5888227 124.060854 49.0541111 125.177598 50.1708552 126.642887 50.1708552 128.109177 50.1708552 129.211899 49.0541111 129.211899 47.5888227 129.211899 46.1225327 128.109177 45.0198105 126.642887 45.0198105M126.642887 51.0502286C124.49353 51.0502286 122.94411 49.598962 122.94411 47.5888227 122.94411 45.5917036 124.49353 44.1264152 126.642887 44.1264152 128.779223 44.1264152 130.341663 45.5917036 130.341663 47.5888227 130.341663 49.598962 128.779223 51.0502286 126.642887 51.0502286M138.168687 51.0081629L134.3988 46.1926422C134.175451 45.8991838 134.092321 45.7599664 134.050255 45.5786833L134.050255 50.925033 133.072729 50.925033 133.072729 44.2516107 134.133385 44.2516107 137.902271 48.9980235C138.027467 49.1382425 138.140644 49.4026554 138.168687 49.6119824L138.168687 44.2516107 139.131191 44.2516107 139.131191 51.0081629 138.168687 51.0081629z"/>
    <polygon points="144.709 45.132 144.709 50.925 143.662 50.925 143.662 45.132 141.289 45.132 141.289 44.252 147.082 44.252 147.082 45.132"/>
    <polygon points="154.616 51.05 154.057 51.05 152.689 48.036 151.39 51.05 150.888 51.05 147.944 44.252 149.088 44.252 151.196 49.431 152.243 46.974 151.098 44.252 152.075 44.252 152.773 45.83 153.387 44.252 154.35 44.252 153.206 46.891 154.35 49.431 156.375 44.252 157.422 44.252"/>
    <polygon points="159.69 50.925 160.752 50.925 160.752 44.252 159.69 44.252"/>
    <path d="M168.259682 50.9245323L165.4533 47.5883219 168.175551 44.2521115 169.584752 44.2521115 166.76635 47.5883219 169.753015 50.9245323 168.259682 50.9245323zM164.309513 50.9245323L165.37017 50.9245323 165.37017 44.2521115 164.309513 44.2521115 164.309513 50.9245323zM176.002275 50.9245323L173.195892 47.5883219 175.918143 44.2521115 177.327344 44.2521115 174.508942 47.5883219 177.495607 50.9245323 176.002275 50.9245323zM172.052105 50.9245323L173.112762 50.9245323 173.112762 44.2521115 172.052105 44.2521115 172.052105 50.9245323z"/>
    <polygon points="179.794 50.925 179.794 44.252 183.926 44.252 183.926 45.131 180.855 45.131 180.855 47.058 183.396 47.058 183.396 47.938 180.855 47.938 180.855 50.045 184.01 50.045 184.01 50.925"/>
    <polygon points="186.756 50.925 186.756 44.252 187.817 44.252 187.817 50.045 190.972 50.045 190.972 50.925"/>
    <polygon points="193.132 50.925 194.192 50.925 194.192 44.252 193.132 44.252"/>
    <path d="M202.845898 51.0081629L199.07601 46.1926422C198.852662 45.8991838 198.769532 45.7599664 198.727466 45.5786833L198.727466 50.925033 197.749939 50.925033 197.749939 44.2516107 198.810596 44.2516107 202.579482 48.9980235C202.704678 49.1382425 202.817854 49.4026554 202.845898 49.6119824L202.845898 44.2516107 203.808401 44.2516107 203.808401 51.0081629 202.845898 51.0081629zM212.499675 50.8135589C211.912758 50.9527764 211.089473 51.06395 210.5306 51.06395 208.242026 51.06395 206.553388 49.5706178 206.553388 47.5745003 206.553388 45.6064266 208.19996 44.1401366 210.433448 44.1401366 210.964277 44.1401366 211.591256 44.2102461 211.969848 44.2943775 212.30437 44.3785089 212.499675 44.4616387 212.959393 44.6990094L212.513697 45.5783828C212.30437 45.4531873 212.150129 45.3690559 212.052977 45.3269902 211.6193 45.1457071 210.977297 45.0064897 210.461492 45.0064897 208.855984 45.0064897 207.670132 46.0801665 207.670132 47.5184127 207.670132 49.0397887 208.98118 50.1855782 210.697861 50.1855782 211.033385 50.1855782 211.326843 50.1565328 211.981866 50.0453592L211.981866 47.9370665 213.043524 47.9370665 213.043524 50.6593181C212.806154 50.7294276 212.624871 50.7855152 212.499675 50.8135589"/>
  </g>
</svg>
