<svg xmlns="http://www.w3.org/2000/svg" version="1.1" xmlns:xlink="http://www.w3.org/1999/xlink" xmlns:svgjs="http://svgjs.dev/svgjs" width="1920" height="1280" preserveAspectRatio="none" viewBox="0 0 1920 1280"><g mask="url(&quot;#SvgjsMask1120&quot;)" fill="none"><path d="M1920 0L1203.12 0L1920 117.72z" fill="rgba(255, 255, 255, .1)"></path><path d="M1203.12 0L1920 117.72L1920 222.15L819.7199999999999 0z" fill="rgba(255, 255, 255, .075)"></path><path d="M819.72 0L1920 222.15L1920 270.48L586.74 0z" fill="rgba(255, 255, 255, .05)"></path><path d="M586.74 0L1920 270.48L1920 944.74L449.84000000000003 0z" fill="rgba(255, 255, 255, .025)"></path><path d="M0 1280L918.46 1280L0 641.67z" fill="rgba(0, 0, 0, .1)"></path><path d="M0 641.67L918.46 1280L964.61 1280L0 289.23999999999995z" fill="rgba(0, 0, 0, .075)"></path><path d="M0 289.24L964.61 1280L967.44 1280L0 168.53000000000003z" fill="rgba(0, 0, 0, .05)"></path><path d="M0 168.52999999999997L967.44 1280L1260.14 1280L0 78.67999999999998z" fill="rgba(0, 0, 0, .025)"></path></g><defs><mask id="SvgjsMask1120"><rect width="1920" height="1280" fill="#ffffff"></rect></mask></defs></svg>